<svg width="54" height="52" viewBox="0 0 54 52" fill="none" xmlns="http://www.w3.org/2000/svg">
<path d="M49.3348 14.746C50.6859 16.0893 51.7571 17.6872 52.4864 19.4473C53.2157 21.2075 53.5885 23.0948 53.5833 25C53.5832 26.7143 53.2184 28.4091 52.5129 29.9716C51.8075 31.5341 50.7777 32.9286 49.4919 34.0625C49.0112 34.4864 48.3817 34.7021 47.742 34.662C47.1023 34.6219 46.5047 34.3293 46.0807 33.8486C45.6568 33.3679 45.4411 32.7384 45.4812 32.0987C45.5213 31.459 45.8139 30.8614 46.2946 30.4375C47.0662 29.7572 47.6842 28.9205 48.1075 27.983C48.5309 27.0455 48.7499 26.0286 48.75 25C48.7213 22.4103 47.6661 19.9378 45.8161 18.1254C43.9661 16.313 41.4724 15.3088 38.8827 15.3333C36.7797 15.3367 34.7456 16.084 33.1407 17.4431C32.8087 17.7037 32.4141 17.8729 31.9964 17.9337C31.5787 17.9945 31.1523 17.9449 30.7597 17.7896C30.3671 17.6344 30.0221 17.3791 29.7589 17.049C29.4957 16.719 29.3235 16.3257 29.2595 15.9085C28.8201 12.9647 27.3051 10.2884 25.0072 8.39675C22.7094 6.50508 19.7918 5.53238 16.8185 5.66663C13.6304 5.91671 10.658 7.37418 8.50803 9.74151C6.35807 12.1088 5.19275 15.2075 5.24995 18.4049C5.24307 20.7696 5.8451 23.0963 6.99805 25.161C8.15101 27.2257 9.81608 28.9587 11.8329 30.1934C12.3526 30.5417 12.7169 31.0779 12.8494 31.6893C12.9818 32.3007 12.872 32.9396 12.543 33.4717C12.2141 34.0038 11.6916 34.3876 11.0855 34.5424C10.4794 34.6972 9.83685 34.6109 9.29303 34.3017C6.5735 32.6366 4.32838 30.2995 2.77377 27.5153C1.21915 24.7311 0.407388 21.5937 0.416613 18.4049C0.373013 13.965 2.02554 9.67593 5.03687 6.41309C8.0482 3.15026 12.1913 1.15972 16.6204 0.847801C20.1754 0.686818 23.69 1.65691 26.6592 3.61869C29.6284 5.58047 31.8992 8.43295 33.1455 11.7663C35.018 10.89 37.0671 10.4567 39.134 10.5C41.0304 10.4997 42.908 10.8748 44.6588 11.6035C46.4095 12.3323 47.9987 13.4003 49.3348 14.746ZM17.3333 49.1666C17.3333 49.8076 17.5879 50.4223 18.0411 50.8755C18.4943 51.3287 19.109 51.5833 19.7499 51.5833C20.3909 51.5833 21.0056 51.3287 21.4588 50.8755C21.912 50.4223 22.1666 49.8076 22.1666 49.1666V46.75C22.1666 46.109 21.912 45.4943 21.4588 45.0411C21.0056 44.5879 20.3909 44.3333 19.7499 44.3333C19.109 44.3333 18.4943 44.5879 18.0411 45.0411C17.5879 45.4943 17.3333 46.109 17.3333 46.75V49.1666ZM36.6666 49.1666C36.6666 49.8076 36.9212 50.4223 37.3744 50.8755C37.8277 51.3287 38.4423 51.5833 39.0833 51.5833C39.7242 51.5833 40.3389 51.3287 40.7921 50.8755C41.2453 50.4223 41.5 49.8076 41.5 49.1666V46.75C41.5 46.109 41.2453 45.4943 40.7921 45.0411C40.3389 44.5879 39.7242 44.3333 39.0833 44.3333C38.4423 44.3333 37.8277 44.5879 37.3744 45.0411C36.9212 45.4943 36.6666 46.109 36.6666 46.75V49.1666ZM19.7499 41.9166C20.3909 41.9166 21.0056 41.662 21.4588 41.2088C21.912 40.7556 22.1666 40.1409 22.1666 39.5V27.4166C22.1666 26.7757 21.912 26.161 21.4588 25.7078C21.0056 25.2546 20.3909 25 19.7499 25C19.109 25 18.4943 25.2546 18.0411 25.7078C17.5879 26.161 17.3333 26.7757 17.3333 27.4166V39.5C17.3333 40.1409 17.5879 40.7556 18.0411 41.2088C18.4943 41.662 19.109 41.9166 19.7499 41.9166ZM39.0833 41.9166C39.7242 41.9166 40.3389 41.662 40.7921 41.2088C41.2453 40.7556 41.5 40.1409 41.5 39.5V27.4166C41.5 26.7757 41.2453 26.161 40.7921 25.7078C40.3389 25.2546 39.7242 25 39.0833 25C38.4423 25 37.8277 25.2546 37.3744 25.7078C36.9212 26.161 36.6666 26.7757 36.6666 27.4166V39.5C36.6666 40.1409 36.9212 40.7556 37.3744 41.2088C37.8277 41.662 38.4423 41.9166 39.0833 41.9166ZM26.9999 44.3333C26.9999 44.9742 27.2546 45.5889 27.7078 46.0421C28.161 46.4954 28.7757 46.75 29.4166 46.75C30.0576 46.75 30.6722 46.4954 31.1255 46.0421C31.5787 45.5889 31.8333 44.9742 31.8333 44.3333V41.9166C31.8333 41.2757 31.5787 40.661 31.1255 40.2078C30.6722 39.7546 30.0576 39.5 29.4166 39.5C28.7757 39.5 28.161 39.7546 27.7078 40.2078C27.2546 40.661 26.9999 41.2757 26.9999 41.9166V44.3333ZM29.4166 37.0833C30.0576 37.0833 30.6722 36.8287 31.1255 36.3755C31.5787 35.9223 31.8333 35.3076 31.8333 34.6666V22.5833C31.8333 21.9424 31.5787 21.3277 31.1255 20.8745C30.6722 20.4212 30.0576 20.1666 29.4166 20.1666C28.7757 20.1666 28.161 20.4212 27.7078 20.8745C27.2546 21.3277 26.9999 21.9424 26.9999 22.5833V34.6666C26.9999 35.3076 27.2546 35.9223 27.7078 36.3755C28.161 36.8287 28.7757 37.0833 29.4166 37.0833Z" fill="#CFDBEB"/>
</svg>
