<svg width="64" height="64" viewBox="0 0 64 64" fill="none" xmlns="http://www.w3.org/2000/svg">
<path d="M47.2482 38.4802C43.0884 37.6289 45.9309 35.393 49.1387 34.533C50.5709 34.1486 51.1175 33.0259 50.9865 32C51.1175 30.975 50.5707 29.8512 49.1387 29.4669C45.9309 28.607 43.0884 26.371 47.2482 25.5196C51.409 24.6684 55.6456 22.6089 53.7987 19.4142C51.9537 16.2149 48.0511 18.8552 45.2342 22.0317C42.4182 25.2092 41.903 21.6312 42.762 18.4215C43.1454 16.9902 42.446 15.9549 41.493 15.5544C40.6682 14.9299 39.4221 14.8396 38.3752 15.8884C36.0262 18.2384 32.6685 19.5804 34.0122 15.5524C35.3542 11.5255 35.6892 6.82373 31.9984 6.82373C28.3055 6.82373 28.6405 11.5255 29.9825 15.5524C31.3265 19.5804 27.9686 18.2382 25.6196 15.8884C24.5727 14.8396 23.3266 14.9299 22.5019 15.5544C21.549 15.9549 20.8505 16.9902 21.2329 18.4215C22.0937 21.6312 21.5784 25.2092 18.7606 22.0317C15.9437 18.8552 12.0421 16.2149 10.1961 19.4142C8.35011 22.6087 12.5867 24.6682 16.7466 25.5196C20.9064 26.371 18.0649 28.6069 14.8561 29.4669C13.424 29.8512 12.8774 30.975 13.0082 32C12.8774 33.0259 13.424 34.1486 14.8561 34.533C18.0649 35.3929 20.9065 37.6289 16.7466 38.4802C12.5867 39.3315 8.35011 41.391 10.1961 44.5875C12.0421 47.7849 15.9436 45.1445 18.7606 41.969C21.5784 38.7905 22.0939 42.3685 21.2329 45.5782C20.8505 47.0095 21.5489 48.0449 22.5019 48.4454C23.3266 49.0699 24.5727 49.1601 25.6196 48.1114C27.9686 45.7614 31.3264 44.4204 29.9825 48.4474C28.6405 52.4762 28.3055 57.176 31.9984 57.176C35.6892 57.176 35.3542 52.4762 34.0122 48.4474C32.6684 44.4204 36.0262 45.7615 38.3752 48.1114C39.422 49.1601 40.6682 49.0699 41.493 48.4454C42.446 48.0449 43.1454 47.0095 42.762 45.5782C41.9031 42.3685 42.4184 38.7905 45.2342 41.969C48.0511 45.1445 51.9537 47.7849 53.7987 44.5875C55.6456 41.3911 51.4089 39.3316 47.2482 38.4802ZM33.6764 24.6152C33.6764 23.2695 35.9267 22.3736 38.2186 21.2251C38.3715 23.7857 38.7189 26.1811 37.5534 26.8551C36.4496 27.492 34.7659 28.4649 33.6764 29.094C33.6764 27.8365 33.6764 25.8907 33.6764 24.6152ZM25.7762 21.2251C28.0711 22.3736 30.3195 23.2695 30.3195 24.6152C30.3195 25.8909 30.3195 27.8365 30.3195 29.094C29.231 28.4649 27.5454 27.492 26.4426 26.8551C25.2761 26.1811 25.6235 23.7857 25.7762 21.2251ZM19.555 32C21.6962 30.5877 23.5981 29.0882 24.7635 29.762C25.8682 30.3989 27.552 31.3707 28.6405 32C27.5519 32.6292 25.8682 33.601 24.7635 34.2389C23.5981 34.9127 21.6962 33.4122 19.555 32ZM30.3195 39.3847C30.3195 40.7305 28.0711 41.6264 25.7762 42.7749C25.6235 40.2152 25.2761 37.8189 26.4425 37.1449C27.5452 36.508 29.2309 35.5351 30.3194 34.906C30.3195 36.1635 30.3195 38.1092 30.3195 39.3847ZM32.9674 33.678H31.9984H31.0274L30.5434 32.84L30.0584 32.0001L30.5434 31.1601L31.0274 30.3221H31.9984H32.9674L33.4514 31.1601L33.9354 32.0001L33.4514 32.84L32.9674 33.678ZM38.2186 42.7749C35.9267 41.6264 33.6764 40.7306 33.6764 39.3847C33.6764 38.1091 33.6764 36.1635 33.6764 34.906C34.7659 35.5351 36.4496 36.508 37.5534 37.1449C38.7187 37.8189 38.3715 40.2152 38.2186 42.7749ZM39.2322 34.2389C38.1275 33.6011 36.4439 32.6292 35.3544 32C36.4439 31.3707 38.1276 30.3989 39.2322 29.762C40.3977 29.0882 42.2987 30.5877 44.4399 32C42.2987 33.4122 40.3977 34.9127 39.2322 34.2389Z" fill="#CFDBEB"/>
<path d="M31.9987 4.25187C33.1727 4.25187 34.1237 3.30087 34.1237 2.125C34.1237 0.953 33.1727 0 31.9987 0C30.8237 0 29.8718 0.952875 29.8718 2.125C29.8717 3.30087 30.8237 4.25187 31.9987 4.25187Z" fill="#CFDBEB"/>
<path d="M31.9987 59.748C30.8237 59.748 29.8718 60.699 29.8718 61.8749C29.8718 63.0489 30.8237 63.9999 31.9987 63.9999C33.1727 63.9999 34.1237 63.0489 34.1237 61.8749C34.1236 60.699 33.1727 59.748 31.9987 59.748Z" fill="#CFDBEB"/>
<path d="M21.6004 13.9882C22.6159 13.4027 22.9633 12.1015 22.3777 11.086C21.7903 10.0685 20.4909 9.72023 19.4737 10.3069C18.4552 10.8944 18.1079 12.1955 18.6944 13.211C19.2819 14.2284 20.5832 14.5757 21.6004 13.9882Z" fill="#CFDBEB"/>
<path d="M42.3977 50.0114C41.3802 50.5969 41.0299 51.8982 41.6184 52.9137C42.2059 53.9319 43.5052 54.2813 44.5227 53.6928C45.5401 53.1053 45.8874 51.8042 45.2989 50.7887C44.7143 49.773 43.4132 49.4239 42.3977 50.0114Z" fill="#CFDBEB"/>
<path d="M11.2012 32C11.2012 30.8259 10.2485 29.875 9.07446 29.875C7.90134 29.875 6.94946 30.826 6.94946 32C6.94946 33.174 7.90134 34.125 9.07446 34.125C10.2485 34.125 11.2012 33.174 11.2012 32Z" fill="#CFDBEB"/>
<path d="M57.0475 32C57.0475 30.8259 56.0937 29.875 54.9207 29.875C53.7467 29.875 52.7957 30.8241 52.7957 32C52.7957 33.174 53.7467 34.125 54.9207 34.125C56.0937 34.125 57.0475 33.174 57.0475 32Z" fill="#CFDBEB"/>
<path d="M21.6004 50.0114C20.583 49.4239 19.2819 49.7731 18.6963 50.7886C18.1078 51.8041 18.4552 53.1053 19.4735 53.6928C20.4908 54.2813 21.7903 53.9319 22.3775 52.9136C22.9652 51.8981 22.616 50.5969 21.6004 50.0114Z" fill="#CFDBEB"/>
<path d="M42.3975 13.9882C43.413 14.5757 44.7142 14.2283 45.2988 13.211C45.8873 12.1955 45.5399 10.8943 44.5225 10.3068C43.505 9.7202 42.2058 10.0686 41.6183 11.086C41.0318 12.1015 41.38 13.4027 42.3975 13.9882Z" fill="#CFDBEB"/>
<path d="M5.06271 18.9049C6.08008 19.4924 7.37946 19.1431 7.96683 18.1257C8.55333 17.1102 8.20508 15.809 7.18771 15.2235C6.17208 14.635 4.87096 14.9844 4.28633 15.9999C3.69796 17.0181 4.04533 18.3165 5.06271 18.9049Z" fill="#CFDBEB"/>
<path d="M58.9323 45.0961C57.9168 44.5096 56.6155 44.8569 56.028 45.8743C55.4425 46.8908 55.7898 48.1911 56.8073 48.7794C57.8228 49.3649 59.123 49.0177 59.7115 48.0002C60.297 46.9848 59.9496 45.6836 58.9323 45.0961Z" fill="#CFDBEB"/>
<path d="M5.06271 45.0961C4.04533 45.6836 3.69796 46.9848 4.28633 48.0003C4.87108 49.0178 6.17208 49.3651 7.18771 48.7796C8.20496 48.1911 8.55333 46.8908 7.96683 45.8744C7.37946 44.8569 6.08008 44.5096 5.06271 45.0961Z" fill="#CFDBEB"/>
<path d="M58.9324 18.9048C59.9499 18.3164 60.2972 17.018 59.7117 15.9998C59.1232 14.9843 57.8229 14.635 56.8056 15.2234C55.7901 15.8089 55.4428 17.1102 56.0283 18.1257C56.6157 19.143 57.9151 19.4923 58.9324 18.9048Z" fill="#CFDBEB"/>
</svg>
