<svg width="58" height="58" viewBox="0 0 58 58" fill="none" xmlns="http://www.w3.org/2000/svg">
<mask id="mask0_17_311" style="mask-type:luminance" maskUnits="userSpaceOnUse" x="0" y="1" width="58" height="56">
<path d="M57.6874 1.10303H0.325439V56.64H57.6874V1.10303Z" fill="white"/>
</mask>
<g mask="url(#mask0_17_311)">
<path d="M28.0798 44.8179C25.3955 44.7869 22.7348 44.3117 20.2056 43.4123C15.5405 41.7085 12.9485 38.2878 12.0638 33.4907C11.5441 30.6735 11.8403 27.8911 12.5873 25.1491C13.276 22.6395 14.6567 20.3743 16.5717 18.6121C16.9801 18.2214 17.2987 17.7465 17.5051 17.2203C17.7737 16.5215 18.2954 16.1579 18.8902 15.8469C21.1961 14.6404 23.6652 13.932 26.1881 13.3177C31.2986 12.0724 35.8291 13.2858 39.8976 16.4154C44.1856 19.714 46.0953 24.1359 45.6491 29.5257C45.3842 32.7297 44.5487 35.7497 42.4472 38.3042C39.6961 41.6481 36.1355 43.6086 31.9317 44.4238C30.6697 44.6681 29.365 44.6927 28.0798 44.8179ZM15.5905 30.128C15.6481 30.99 15.6687 31.6601 15.7415 32.3245C16.156 36.0835 18.0295 38.7201 21.6923 39.9328C24.877 41.0165 28.2878 41.2576 31.5932 40.6326C34.5088 40.0754 37.065 38.7143 38.9955 36.4047C41.5387 33.3619 41.7854 29.7559 41.3047 26.0304C41.0933 24.6101 40.5221 23.2674 39.6455 22.13C35.6784 16.7463 29.4332 15.5595 23.8614 17.6639C19.6635 19.2494 16.6154 22.3593 15.8828 27.1258C15.7209 28.1808 15.6731 29.2532 15.5905 30.128Z" fill="#CFDBEB"/>
<path d="M29.8943 54.2594C29.8729 54.4056 29.8537 54.5828 29.8211 54.7572C29.6154 55.8592 28.9932 56.4975 28.1164 56.5099C27.1889 56.523 26.4998 55.8258 26.3695 54.6662C26.3488 54.2228 26.3668 53.7783 26.4234 53.3381C26.5144 51.9596 26.5934 50.5792 26.7146 49.2031C26.7394 48.7597 26.8455 48.3247 27.0275 47.9199C27.1237 47.7308 27.2695 47.5715 27.4494 47.4591C27.6293 47.3467 27.8366 47.2851 28.0486 47.2819C28.2608 47.2783 28.4699 47.3328 28.6535 47.4392C28.837 47.5457 28.988 47.7002 29.0902 47.8861C29.2485 48.1571 29.3489 48.4574 29.3851 48.7689C29.5707 50.5863 29.7261 52.4074 29.8943 54.2594Z" fill="#CFDBEB"/>
<path d="M12.2237 14.2838C11.9734 14.139 11.4374 13.9584 11.0807 13.5991C9.95569 12.4654 8.87066 11.2925 7.82542 10.0806C7.28777 9.45879 7.30763 8.73712 7.72114 8.25215C7.93952 7.99206 8.24791 7.8241 8.58487 7.78159C8.92178 7.73912 9.26231 7.82525 9.53841 8.02301C11.0575 8.94966 12.4684 10.0307 13.5661 11.4566C13.8033 11.7792 13.9719 12.1468 14.0615 12.537C14.3008 13.5388 13.5 14.4125 12.2237 14.2838Z" fill="#CFDBEB"/>
<path d="M48.2667 48.0216C48.2282 49.4053 47.2871 50.1565 46.2331 49.8152C45.6936 49.6226 45.2138 49.2924 44.8407 48.8574C44.0843 47.9843 43.4166 47.0304 42.7392 46.0905C42.5311 45.8025 42.3729 45.4819 42.2716 45.1415C42.0837 44.4947 42.1898 43.8821 42.767 43.463C43.0173 43.2692 43.3232 43.1615 43.6398 43.156C43.956 43.1508 44.2655 43.2473 44.5229 43.4321C44.8193 43.6299 45.0882 43.8663 45.3226 44.1348C46.0985 44.9949 46.887 45.8494 47.6025 46.7599C47.8694 47.1552 48.0923 47.5783 48.2667 48.0216Z" fill="#CFDBEB"/>
<path d="M49.1586 7.44336C50.406 7.4749 50.9836 8.51525 50.4338 9.48675C50.122 9.97129 49.7339 10.4019 49.2838 10.7619C48.2191 11.7039 47.1243 12.6131 46.033 13.5241C45.7621 13.7504 45.476 14.0716 45.1666 14.1125C44.7065 14.1918 44.2338 14.1186 43.8198 13.904C43.3904 13.624 43.3781 13.0514 43.6089 12.569C43.7376 12.2864 43.9148 12.0282 44.1317 11.8059C45.4673 10.5022 46.8045 9.2008 48.1798 7.94041C48.4773 7.72371 48.8078 7.55606 49.1586 7.44336Z" fill="#CFDBEB"/>
<path d="M28.5555 6.5589C28.774 5.17699 28.9751 3.81651 29.2155 2.46172C29.276 2.15578 29.4071 1.86824 29.5982 1.62171C29.713 1.45593 29.8699 1.32395 30.0532 1.23952C30.2363 1.15508 30.4386 1.12114 30.6391 1.14148C30.8399 1.16183 31.0312 1.23564 31.1937 1.35512C31.3561 1.47459 31.4836 1.63539 31.5626 1.82083C31.724 2.18648 31.8163 2.57889 31.8354 2.9781C31.9172 4.17437 31.9808 5.37304 31.9955 6.57165C31.9928 7.01579 31.911 7.45596 31.7535 7.87125C31.6456 8.19053 31.4356 8.46555 31.1561 8.65421C30.8769 8.84291 30.5434 8.93472 30.2068 8.91573C29.8916 8.9137 29.586 8.80815 29.3367 8.61528C29.0874 8.42237 28.9086 8.15291 28.8275 7.84833C28.6979 7.43089 28.6437 6.99017 28.5555 6.5589Z" fill="#CFDBEB"/>
<path d="M7.87018 48.0799C7.98674 47.7188 8.15764 47.3775 8.37705 47.0673C9.32324 46.0018 10.3217 44.9817 11.3182 43.9627C11.5198 43.7871 11.748 43.6445 11.9942 43.5408C12.2128 43.422 12.4635 43.3759 12.71 43.4097C12.9565 43.4435 13.1857 43.5547 13.3644 43.7279C13.5799 43.892 13.7347 44.1228 13.8047 44.3846C13.8745 44.646 13.8555 44.9233 13.7505 45.1731C13.6622 45.4254 13.5381 45.6638 13.382 45.8807C12.635 46.8238 11.9095 47.7899 11.0874 48.6659C10.6602 49.1163 10.1368 49.4643 9.55631 49.684C8.59812 50.0376 7.75962 49.2907 7.87018 48.0799Z" fill="#CFDBEB"/>
<path d="M4.29412 30.893C3.44856 30.893 2.5993 30.9402 1.75816 30.8803C0.83724 30.8148 0.394015 30.4112 0.344736 29.7487C0.29676 29.1067 0.7548 28.501 1.57013 28.4014C3.24745 28.1968 4.93597 28.082 6.62166 27.9522C6.8895 27.9504 7.1559 27.9916 7.41086 28.0737C8.15215 28.2619 8.5336 28.6992 8.55108 29.351C8.56975 29.6449 8.48569 29.9361 8.31312 30.1747C8.14055 30.4133 7.89035 30.5848 7.6054 30.6592C7.09178 30.7973 6.56287 30.8704 6.03106 30.8772C5.45404 30.9118 4.87348 30.8847 4.29412 30.8847V30.893Z" fill="#CFDBEB"/>
<path d="M53.4208 28.0865C54.1728 28.0153 54.928 27.9861 55.6832 27.9983C56.206 28.0111 56.7157 28.1639 57.1586 28.4416C57.3064 28.5628 57.422 28.7185 57.4963 28.8945C57.5706 29.0705 57.6008 29.2616 57.5841 29.4522C57.5678 29.6425 57.5055 29.8258 57.4026 29.9867C57.2993 30.1476 57.1586 30.2811 56.9926 30.3755C56.4519 30.6662 55.8449 30.8114 55.2307 30.7973C53.7223 30.7606 52.2171 30.6018 50.7111 30.4819C50.4465 30.4534 50.1843 30.4062 49.9265 30.3408C49.3469 30.2104 48.956 29.8975 48.9616 29.2519C48.954 28.9784 49.0549 28.713 49.2424 28.5138C49.4299 28.3146 49.6886 28.1975 49.9623 28.1884C50.8847 28.0792 51.8219 28.0917 52.7518 28.0568C52.9743 28.0484 53.1968 28.0568 53.4192 28.0568L53.4208 28.0865Z" fill="#CFDBEB"/>
</g>
</svg>
