<svg width="80" height="80" viewBox="0 0 80 80" fill="none" xmlns="http://www.w3.org/2000/svg">
<circle cx="40" cy="40" r="40" fill="#CFDBEB"/>
<path fill-rule="evenodd" clip-rule="evenodd" d="M56.5 34.5H45.5V23.5C45.5 20.4612 43.0374 18 40 18C36.9626 18 34.5 20.4612 34.5 23.5V34.5H23.5C20.4626 34.5 18 36.9613 18 40C18 43.0387 20.4626 45.5 23.5 45.5H34.5V56.5C34.5 59.5387 36.9626 62 40 62C43.0374 62 45.5 59.5387 45.5 56.5V45.5H56.5C59.5374 45.5 62 43.0387 62 40C62 36.9613 59.5374 34.5 56.5 34.5Z" fill="black"/>
</svg>
