<svg width="68" height="68" viewBox="0 0 68 68" fill="none" xmlns="http://www.w3.org/2000/svg">
<g clip-path="url(#clip0_4_188)">
<path d="M1.13333 46.4665C0.507733 46.4665 0 45.9599 0 45.3331V41.9331C0 41.3064 0.507733 40.7998 1.13333 40.7998C1.75893 40.7998 2.26667 41.3064 2.26667 41.9331V45.3331C2.26667 45.9599 1.75893 46.4665 1.13333 46.4665Z" fill="#4D4D4D"/>
<path d="M7.93338 57.8C7.30778 57.8 6.80005 57.2934 6.80005 56.6666V53.2666C6.80005 52.6399 7.30778 52.1333 7.93338 52.1333C8.55898 52.1333 9.06672 52.6399 9.06672 53.2666V56.6666C9.06672 57.2934 8.55898 57.8 7.93338 57.8Z" fill="#4D4D4D"/>
<path d="M14.7334 44.1999C14.1078 44.1999 13.6001 43.6933 13.6001 43.0665V39.6665C13.6001 39.0398 14.1078 38.5332 14.7334 38.5332C15.359 38.5332 15.8668 39.0398 15.8668 39.6665V43.0665C15.8668 43.6933 15.359 44.1999 14.7334 44.1999Z" fill="#4D4D4D"/>
<path d="M19.2666 64.5998C18.641 64.5998 18.1333 64.0932 18.1333 63.4664V60.0664C18.1333 59.4397 18.641 58.9331 19.2666 58.9331C19.8922 58.9331 20.4 59.4397 20.4 60.0664V63.4664C20.4 64.0932 19.8922 64.5998 19.2666 64.5998Z" fill="#4D4D4D"/>
<path d="M26.0667 50.9999C25.4411 50.9999 24.9333 50.4933 24.9333 49.8666V46.4666C24.9333 45.8399 25.4411 45.3333 26.0667 45.3333C26.6923 45.3333 27.2 45.8399 27.2 46.4666V49.8666C27.2 50.4933 26.6923 50.9999 26.0667 50.9999Z" fill="#4D4D4D"/>
<path d="M41.9334 62.3332C41.3078 62.3332 40.8 61.8266 40.8 61.1998V57.7998C40.8 57.1731 41.3078 56.6665 41.9334 56.6665C42.559 56.6665 43.0667 57.1731 43.0667 57.7998V61.1998C43.0667 61.8266 42.559 62.3332 41.9334 62.3332Z" fill="#4D4D4D"/>
<path d="M48.7334 50.9999C48.1078 50.9999 47.6001 50.4933 47.6001 49.8666V46.4666C47.6001 45.8399 48.1078 45.3333 48.7334 45.3333C49.359 45.3333 49.8668 45.8399 49.8668 46.4666V49.8666C49.8668 50.4933 49.359 50.9999 48.7334 50.9999Z" fill="#4D4D4D"/>
<path d="M55.5332 64.5998C54.9076 64.5998 54.3999 64.0932 54.3999 63.4664V60.0664C54.3999 59.4397 54.9076 58.9331 55.5332 58.9331C56.1588 58.9331 56.6666 59.4397 56.6666 60.0664V63.4664C56.6666 64.0932 56.1588 64.5998 55.5332 64.5998Z" fill="#4D4D4D"/>
<path d="M60.0667 44.1999C59.4411 44.1999 58.9333 43.6933 58.9333 43.0665V39.6665C58.9333 39.0398 59.4411 38.5332 60.0667 38.5332C60.6923 38.5332 61.2 39.0398 61.2 39.6665V43.0665C61.2 43.6933 60.6923 44.1999 60.0667 44.1999Z" fill="#4D4D4D"/>
<path d="M66.8667 57.8C66.2411 57.8 65.7334 57.2934 65.7334 56.6666V53.2666C65.7334 52.6399 66.2411 52.1333 66.8667 52.1333C67.4923 52.1333 68.0001 52.6399 68.0001 53.2666V56.6666C68.0001 57.2934 67.4923 57.8 66.8667 57.8Z" fill="#4D4D4D"/>
<path d="M33.983 5.46045C26.4044 5.56472 20.2866 18.1334 20.2866 35.1334H48.7333C48.7333 18.1334 42.1441 5.56472 33.983 5.46045Z" fill="#92C7D3"/>
<path d="M33.8866 4.28857C18.2602 4.28857 5.5918 17.442 5.5918 33.0684C5.5918 33.5988 5.60993 35.1334 5.63826 35.1334H20.2866C20.2866 18.1334 26.4043 4.99804 33.9829 4.89377C33.9512 4.89377 33.9195 4.60591 33.8866 4.60591C33.9183 4.60591 33.9501 4.46877 33.9829 4.46877C34.0124 4.46877 34.0419 4.39284 34.0725 4.39284C34.043 4.39284 34.0135 4.92891 33.9829 4.92891C42.1441 5.03317 48.7333 18.1334 48.7333 35.1334H62.1349C62.1632 35.1334 62.1814 33.626 62.1814 33.0956C62.1803 17.4692 49.513 4.28857 33.8866 4.28857Z" fill="#77B9C8"/>
<path d="M35.1333 3.18807V1.13333C35.1333 0.5066 34.6256 0 34 0C33.3744 0 32.8666 0.5066 32.8666 1.13333V3.18127C17.111 3.73093 4.4585 16.9218 4.4585 33.0684C4.4585 35.5255 4.4585 36.2667 5.6383 36.2667H62.1349C63.3147 36.2667 63.3147 35.5323 63.3147 33.0956C63.3136 17.0113 50.7835 3.8556 35.1333 3.18807ZM21.4336 33.8209C21.4381 33.6135 21.4449 33.4073 21.4506 33.201C21.4585 32.9177 21.4664 32.6332 21.4789 32.351C21.4857 32.1844 21.4948 32.0189 21.5027 31.8535C21.5186 31.5339 21.5344 31.2154 21.5548 30.8992C21.5628 30.7666 21.573 30.6351 21.5832 30.5025C21.607 30.1614 21.6319 29.8203 21.6614 29.4825C21.6716 29.3647 21.6829 29.2468 21.6942 29.1301C21.726 28.7889 21.7588 28.4478 21.7951 28.1112C21.8087 27.9831 21.8246 27.8573 21.8393 27.7293C21.8756 27.4165 21.913 27.1048 21.9526 26.7965C21.9753 26.6209 22.0002 26.4463 22.0252 26.2718C22.058 26.0327 22.0932 25.7958 22.1283 25.5601C22.1714 25.2824 22.2156 25.007 22.262 24.7339C22.2813 24.6217 22.2994 24.5095 22.3187 24.3984C24.1558 13.94 28.6268 6.67987 33.983 6.59373C39.551 6.6776 44.2374 13.362 46.3692 23.1381C46.3896 23.2322 46.4099 23.3274 46.4292 23.4226C46.4847 23.6844 46.5369 23.9485 46.589 24.2148C46.6344 24.4483 46.6774 24.684 46.7205 24.9197C46.7488 25.075 46.776 25.2314 46.8021 25.3878C46.8576 25.7142 46.9097 26.0417 46.9596 26.3738C46.9732 26.4667 46.988 26.5585 47.0016 26.6515C47.056 27.0266 47.1058 27.404 47.1534 27.7859C47.1625 27.8551 47.1704 27.9242 47.1795 27.9933C47.2259 28.3832 47.269 28.7753 47.3075 29.1709C47.3143 29.2445 47.3223 29.3182 47.3302 29.3919C47.3665 29.7693 47.3982 30.1512 47.4266 30.5343C47.4345 30.6351 47.4424 30.736 47.4492 30.8369C47.4741 31.1837 47.4934 31.5327 47.5115 31.8829C47.5195 32.0257 47.5274 32.1674 47.5342 32.3113C47.549 32.6219 47.558 32.9347 47.5682 33.2475C47.5739 33.4299 47.5807 33.6101 47.5841 33.7937C47.5852 33.8617 47.5852 33.9309 47.5863 33.9989H21.4324C21.4336 33.9411 21.4324 33.881 21.4336 33.8209ZM19.1624 34H6.7331C6.72856 33.6623 6.72516 33.3109 6.72516 33.0684C6.72516 19.7597 16.0128 8.61673 28.3367 6.00213C22.9998 10.4255 19.3618 20.9871 19.1624 34ZM61.0401 34H49.8564C49.8553 33.9445 49.8519 33.8901 49.8507 33.8345C49.836 33.1137 49.8111 32.4009 49.7748 31.6971C49.7714 31.6325 49.7669 31.569 49.7623 31.5044C49.7238 30.8142 49.6728 30.1319 49.6128 29.4587C49.6071 29.3919 49.6014 29.325 49.5958 29.2581C49.4609 27.8143 49.2773 26.4135 49.0484 25.0591C49.0336 24.9741 49.02 24.8891 49.0053 24.8053C48.8942 24.1695 48.7763 23.5416 48.6449 22.9285C48.5995 22.7143 48.5485 22.5069 48.5009 22.2949C48.4329 21.9946 48.3638 21.6954 48.2913 21.4007C46.6094 14.4999 43.6899 9.05533 40.0554 6.14267C52.0709 8.9964 61.0481 19.9988 61.0481 33.0967C61.0469 33.3313 61.0447 33.6713 61.0401 34Z" fill="#4D4D4D"/>
<path d="M27.1058 60.3467C28.4622 60.3467 29.5618 59.2471 29.5618 57.8908C29.5618 56.5344 28.4622 55.4348 27.1058 55.4348C25.7495 55.4348 24.6499 56.5344 24.6499 57.8908C24.6499 59.2471 25.7495 60.3467 27.1058 60.3467Z" fill="#77B9C8"/>
<path d="M34.0001 34C33.3745 34 32.8668 34.5066 32.8668 35.1333V63.4667C32.8668 64.7167 31.8502 65.7333 30.6001 65.7333C29.35 65.7333 28.3334 64.7167 28.3334 63.4667V61.2533C29.707 60.7489 30.6942 59.4399 30.6942 57.8941C30.6942 55.9153 29.0837 54.3059 27.1049 54.3059C25.1261 54.3059 23.5156 55.9153 23.5156 57.8941C23.5156 59.5091 24.5957 60.8634 26.0656 61.3122V63.4667C26.0656 65.9668 28.0988 68 30.599 68C33.0991 68 35.1323 65.9668 35.1323 63.4667V35.1333C35.1334 34.5066 34.6257 34 34.0001 34ZM27.106 56.5726C27.8359 56.5726 28.4286 57.1653 28.4286 57.8941C28.4286 58.4075 28.126 58.8415 27.6976 59.0603C27.5458 58.9843 27.3814 58.9333 27.2001 58.9333C26.9825 58.9333 26.7898 59.0115 26.6176 59.1181C26.1302 58.9231 25.7834 58.4505 25.7834 57.8941C25.7834 57.1653 26.3762 56.5726 27.106 56.5726Z" fill="#4D4D4D"/>
<path d="M60.8465 15.7726C60.8465 19.3721 59.2292 20.0226 57.2334 20.0226C55.2376 20.0226 53.6204 19.3721 53.6204 15.7726C53.6204 12.1731 57.2334 6.98926 57.2334 6.98926C57.2334 6.98926 60.8465 12.1731 60.8465 15.7726Z" fill="#E4F1F4"/>
<path d="M57.2332 21.156C54.0395 21.156 52.4868 19.3948 52.4868 15.7727C52.4868 11.8627 56.1464 6.56546 56.3028 6.34219C56.7266 5.73359 57.7387 5.73359 58.1626 6.34219C58.319 6.56546 61.9785 11.8627 61.9785 15.7727C61.9796 19.3948 60.427 21.156 57.2332 21.156ZM57.2332 9.10413C56.1407 10.9628 54.7535 13.7803 54.7535 15.7727C54.7535 18.6661 55.7814 18.8893 57.2332 18.8893C58.685 18.8893 59.713 18.6661 59.713 15.7727C59.713 13.7757 58.3258 10.9605 57.2332 9.10413Z" fill="#4D4D4D"/>
</g>
<defs>
<clipPath id="clip0_4_188">
<rect width="68" height="68" fill="white"/>
</clipPath>
</defs>
</svg>
