<svg width="80" height="80" viewBox="0 0 80 80" fill="none" xmlns="http://www.w3.org/2000/svg">
<circle cx="40" cy="40" r="40" fill="#CFDBEB"/>
<g clip-path="url(#clip0_54_3)">
<path d="M20.1741 20.1741C20.9261 19.4223 21.9459 19 23.0093 19C24.0726 19 25.0924 19.4223 25.8444 20.1741L40.0242 34.3539L54.204 20.1741C54.9603 19.4436 55.9733 19.0394 57.0247 19.0486C58.0762 19.0577 59.082 19.4794 59.8255 20.223C60.569 20.9665 60.9907 21.9723 60.9998 23.0237C61.009 24.0751 60.6048 25.0881 59.8743 25.8444L45.6945 40.0242L59.8743 54.204C60.6048 54.9603 61.009 55.9733 60.9998 57.0247C60.9907 58.0762 60.569 59.082 59.8255 59.8255C59.082 60.569 58.0762 60.9907 57.0247 60.9998C55.9733 61.009 54.9603 60.6048 54.204 59.8743L40.0242 45.6945L25.8444 59.8743C25.0881 60.6048 24.0751 61.009 23.0237 60.9998C21.9723 60.9907 20.9665 60.569 20.223 59.8255C19.4794 59.082 19.0577 58.0762 19.0486 57.0247C19.0394 55.9733 19.4436 54.9603 20.1741 54.204L34.3539 40.0242L20.1741 25.8444C19.4223 25.0924 19 24.0726 19 23.0093C19 21.9459 19.4223 20.9261 20.1741 20.1741Z" fill="black"/>
</g>
<defs>
<clipPath id="clip0_54_3">
<rect width="42" height="42" fill="white" transform="translate(19 19)"/>
</clipPath>
</defs>
</svg>
