<svg width="72" height="72" viewBox="0 0 72 72" fill="none" xmlns="http://www.w3.org/2000/svg">
<g clip-path="url(#clip0_4_207)">
<path d="M23.9705 40.7793V8.37643C23.9705 4.41073 20.7563 1.19653 16.7906 1.19653C12.8249 1.19653 9.6107 4.41073 9.6107 8.37643V41.1287C4.2162 44.0665 0.723184 50.0569 1.45553 56.7797C2.24413 64.0242 8.1101 69.901 15.3534 70.7003C24.8811 71.7534 32.9454 64.321 32.9454 55.0063C32.9454 48.731 29.274 43.3258 23.9705 40.7793Z" fill="#92C7D3"/>
<path d="M17.1807 72C16.5322 72 15.8788 71.9641 15.2218 71.8911C7.4077 71.0283 1.11692 64.7292 0.266101 56.9103C-0.461462 50.2365 2.72282 43.85 8.41408 40.4348V8.37655C8.41408 3.75868 12.1716 0 16.7906 0C21.4097 0 25.1672 3.75868 25.1672 8.37655V40.0459C30.6442 42.9872 34.142 48.779 34.142 55.0088C34.142 59.8337 32.079 64.448 28.4831 67.6681C25.3251 70.4958 21.3702 72 17.1807 72ZM16.7906 2.3933C13.4915 2.3933 10.8074 5.07738 10.8074 8.37655V41.8397L10.1827 42.1795C4.95697 45.0263 1.99765 50.7068 2.64504 56.6518C3.37619 63.3626 8.77547 68.7726 15.4851 69.5122C19.7045 69.9825 23.7551 68.6901 26.8868 65.8863C29.9765 63.1185 31.7487 59.154 31.7487 55.0088C31.7487 49.4408 28.4927 44.2784 23.4524 41.8588L22.7739 41.5321V8.37655C22.7739 5.07738 20.0898 2.3933 16.7906 2.3933Z" fill="#4D4D4D"/>
<path d="M20.3806 45.2847V32.3094C20.3806 30.3266 18.7735 28.7195 16.7906 28.7195C14.8078 28.7195 13.2007 30.3266 13.2007 32.3094V45.4762C9.42525 46.9684 6.71843 50.5787 6.56287 54.8459C6.35465 60.5767 11.0168 65.5643 16.7499 65.7247C22.6841 65.891 27.5473 61.1295 27.5473 55.2324C27.5473 50.6014 24.5437 46.6776 20.3806 45.2847Z" fill="#E4F1F4"/>
<path d="M19.1839 10.7698H14.3973C13.7368 10.7698 13.2007 10.2349 13.2007 9.57311C13.2007 8.91137 13.7368 8.37646 14.3973 8.37646H19.1839C19.8445 8.37646 20.3806 8.91137 20.3806 9.57311C20.3806 10.2349 19.8445 10.7698 19.1839 10.7698Z" fill="#E4F1F4"/>
<path d="M19.1839 17.9497H14.3973C13.7368 17.9497 13.2007 17.4148 13.2007 16.753C13.2007 16.0913 13.7368 15.5564 14.3973 15.5564H19.1839C19.8445 15.5564 20.3806 16.0913 20.3806 16.753C20.3806 17.4148 19.8445 17.9497 19.1839 17.9497Z" fill="#E4F1F4"/>
<path d="M19.1839 25.1296H14.3973C13.7368 25.1296 13.2007 24.5947 13.2007 23.933C13.2007 23.2712 13.7368 22.7363 14.3973 22.7363H19.1839C19.8445 22.7363 20.3806 23.2712 20.3806 23.933C20.3806 24.5947 19.8445 25.1296 19.1839 25.1296Z" fill="#E4F1F4"/>
<path d="M55.0834 15.5563H53.0598L54.5162 13.9732C54.9637 13.4873 54.9326 12.7299 54.4456 12.2823C53.9597 11.8348 53.201 11.8659 52.7547 12.3541L49.8085 15.5563H46.0056L52.3251 9.23683C52.793 8.76894 52.793 8.01266 52.3251 7.54477C51.8572 7.07688 51.1009 7.07688 50.633 7.54477L44.3135 13.8643V10.0697L47.5947 6.80045C48.0638 6.33376 48.065 5.57748 47.5983 5.10839C47.1316 4.63931 46.3742 4.63691 45.9063 5.106L44.3135 6.69156V4.78649C44.3135 4.12475 43.7774 3.58984 43.1169 3.58984C42.4563 3.58984 41.9202 4.12475 41.9202 4.78649V6.68797L40.3347 5.1048C39.8656 4.63811 39.1081 4.63572 38.6414 5.1072C38.1747 5.57509 38.1759 6.33137 38.6426 6.79926L41.9202 10.0697V13.8643L35.6007 7.54477C35.1328 7.07688 34.3765 7.07688 33.9087 7.54477C33.4408 8.01266 33.4408 8.76894 33.9087 9.23683L40.2282 15.5563H36.3271L33.2505 12.3374C32.7934 11.8587 32.0359 11.8419 31.5584 12.2991C31.081 12.755 31.063 13.5137 31.5201 13.9899L33.0172 15.5563H31.1504C30.4898 15.5563 29.9537 16.0912 29.9537 16.753C29.9537 17.4147 30.4898 17.9496 31.1504 17.9496H33.0136L31.3634 19.5938C30.8943 20.0617 30.8931 20.818 31.3598 21.2871C31.5931 21.5216 31.9007 21.6389 32.207 21.6389C32.5122 21.6389 32.8185 21.5228 33.0519 21.2907L36.4061 17.9496H40.2282L33.9087 24.2691C33.4408 24.737 33.4408 25.4933 33.9087 25.9612C34.142 26.1945 34.4483 26.3118 34.7547 26.3118C35.061 26.3118 35.3674 26.1945 35.6007 25.9612L41.9202 19.6417V23.4052L38.6438 26.6744C38.1759 27.1423 38.1747 27.8986 38.6426 28.3665C39.1093 28.8356 39.8668 28.8356 40.3359 28.3689L41.9202 26.7869V28.7195C41.9202 29.3812 42.4563 29.9161 43.1169 29.9161C43.7774 29.9161 44.3135 29.3812 44.3135 28.7195V26.7833L45.9063 28.3701C46.1396 28.6034 46.4448 28.7195 46.7511 28.7195C47.0574 28.7195 47.365 28.6022 47.5983 28.3677C48.065 27.8986 48.0638 27.1423 47.5947 26.6756L44.3135 23.4064V19.6417L50.633 25.9612C50.8664 26.1945 51.1727 26.3118 51.4791 26.3118C51.7854 26.3118 52.0917 26.1945 52.3251 25.9612C52.793 25.4933 52.793 24.737 52.3251 24.2691L46.0056 17.9496H49.8181L52.9414 21.2632C53.1771 21.5133 53.4942 21.6389 53.8125 21.6389C54.1069 21.6389 54.4025 21.5312 54.6334 21.3134C55.1145 20.8599 55.136 20.1024 54.6837 19.6226L53.1065 17.9496H55.0834C55.7439 17.9496 56.28 17.4147 56.28 16.753C56.28 16.0912 55.7439 15.5563 55.0834 15.5563Z" fill="#4D4D4D"/>
<path d="M43.1767 21.1507C45.6405 21.1507 47.6378 19.1534 47.6378 16.6896C47.6378 14.2258 45.6405 12.2285 43.1767 12.2285C40.7129 12.2285 38.7156 14.2258 38.7156 16.6896C38.7156 19.1534 40.7129 21.1507 43.1767 21.1507Z" fill="#E4F1F4"/>
<path d="M43.1803 22.3487C40.0607 22.3487 37.5226 19.8106 37.5226 16.6897C37.5226 13.5689 40.0607 11.0308 43.1803 11.0308C46.3 11.0308 48.8393 13.5689 48.8393 16.6897C48.8393 19.8106 46.3 22.3487 43.1803 22.3487ZM43.1803 13.4253C41.3806 13.4253 39.9159 14.89 39.9159 16.6909C39.9159 18.4919 41.3806 19.9566 43.1803 19.9566C44.9801 19.9566 46.446 18.4919 46.446 16.6909C46.446 14.89 44.9801 13.4253 43.1803 13.4253Z" fill="#4D4D4D"/>
<path d="M70.6399 49.0627H68.6164L70.0727 47.4795C70.5202 46.9937 70.4891 46.2362 70.0021 45.7887C69.5162 45.3411 68.7564 45.3722 68.3112 45.8605L65.3651 49.0627H61.5621L67.8816 42.7432C68.3495 42.2753 68.3495 41.519 67.8816 41.0511C67.4137 40.5832 66.6574 40.5832 66.1895 41.0511L59.87 47.3706V43.576L63.1513 40.3068C63.6203 39.8401 63.6215 39.0838 63.1548 38.6147C62.6882 38.1457 61.9295 38.1433 61.4628 38.6123L59.87 40.1979V38.2928C59.87 37.6311 59.3339 37.0962 58.6734 37.0962C58.0128 37.0962 57.4767 37.6311 57.4767 38.2928V40.1943L55.8912 38.6111C55.4221 38.1445 54.6646 38.1433 54.1979 38.6135C53.7312 39.0814 53.7324 39.8377 54.1991 40.3056L57.4767 43.576V47.3706L51.1572 41.0511C50.6893 40.5832 49.9331 40.5832 49.4652 41.0511C48.9973 41.519 48.9973 42.2753 49.4652 42.7432L55.7847 49.0627H51.8836L48.807 45.8437C48.3499 45.3638 47.5924 45.3483 47.115 45.8054C46.6375 46.2613 46.6195 47.02 47.0767 47.4963L48.5737 49.0627H46.7069C46.0464 49.0627 45.5103 49.5976 45.5103 50.2593C45.5103 50.9211 46.0464 51.456 46.7069 51.456H48.5701L46.9199 53.1002C46.4508 53.5681 46.4496 54.3244 46.9163 54.7934C47.1497 55.028 47.4572 55.1453 47.7635 55.1453C48.0687 55.1453 48.375 55.0292 48.6084 54.797L51.9626 51.456H55.7847L49.4652 57.7755C48.9973 58.2434 48.9973 58.9997 49.4652 59.4676C49.6985 59.7009 50.0049 59.8182 50.3112 59.8182C50.6175 59.8182 50.9239 59.7009 51.1572 59.4676L57.4767 53.148V56.9115L54.2003 60.1808C53.7324 60.6486 53.7312 61.4049 54.1991 61.8728C54.6658 62.3431 55.4233 62.3407 55.8924 61.8752L57.4767 60.2932V62.2258C57.4767 62.8876 58.0128 63.4225 58.6734 63.4225C59.3339 63.4225 59.87 62.8876 59.87 62.2258V60.2896L61.4628 61.8764C61.6961 62.1098 62.0013 62.2258 62.3076 62.2258C62.614 62.2258 62.9215 62.1086 63.1548 61.874C63.6215 61.4049 63.6203 60.6486 63.1513 60.1819L59.87 56.9127V53.148L66.1895 59.4676C66.4229 59.7009 66.7292 59.8182 67.0356 59.8182C67.3419 59.8182 67.6483 59.7009 67.8816 59.4676C68.3495 58.9997 68.3495 58.2434 67.8816 57.7755L61.5621 51.456H65.3746L68.4979 54.7695C68.7336 55.0196 69.0507 55.1453 69.369 55.1453C69.6634 55.1453 69.959 55.0376 70.19 54.8198C70.671 54.3662 70.6925 53.6088 70.2402 53.1289L68.663 51.456H70.6399C71.3004 51.456 71.8365 50.9211 71.8365 50.2593C71.8365 49.5976 71.3004 49.0627 70.6399 49.0627Z" fill="#4D4D4D"/>
<path d="M58.7332 54.6571C61.197 54.6571 63.1943 52.6598 63.1943 50.196C63.1943 47.7322 61.197 45.7349 58.7332 45.7349C56.2694 45.7349 54.2721 47.7322 54.2721 50.196C54.2721 52.6598 56.2694 54.6571 58.7332 54.6571Z" fill="#E4F1F4"/>
<path d="M58.7367 55.8548C55.6171 55.8548 53.079 53.3167 53.079 50.1958C53.079 47.075 55.6171 44.5369 58.7367 44.5369C61.8564 44.5369 64.3957 47.075 64.3957 50.1958C64.3957 53.3167 61.8564 55.8548 58.7367 55.8548ZM58.7367 46.9314C56.937 46.9314 55.4723 48.3961 55.4723 50.197C55.4723 51.998 56.937 53.4627 58.7367 53.4627C60.5365 53.4627 62.0024 51.998 62.0024 50.197C62.0024 48.3961 60.5365 46.9314 58.7367 46.9314Z" fill="#4D4D4D"/>
</g>
<defs>
<clipPath id="clip0_4_207">
<rect width="72" height="72" fill="white"/>
</clipPath>
</defs>
</svg>
