<svg width="95" height="95" viewBox="0 0 95 95" fill="none" xmlns="http://www.w3.org/2000/svg">
<path d="M66.0496 62.9011C68.085 59.0167 69.2422 54.565 69.2422 49.8316C69.2422 35.7557 59.0175 24.1613 45.8582 22.6104C32.698 24.1613 22.4733 35.7557 22.4733 49.8317C22.4733 54.5651 23.6307 59.0168 25.6659 62.9012H66.0496V62.9011Z" fill="#FDD72C"/>
<path d="M69.2422 49.8318C69.2422 54.5651 68.0849 59.0168 66.0496 62.9012H72.0713C74.1062 59.0166 75.262 54.5643 75.262 49.8318C75.262 34.6994 63.4449 22.4319 48.8679 22.4319C48.6215 22.4319 48.3761 22.4361 48.1312 22.4429C48.0882 22.4443 48.0458 22.4465 48.0033 22.448C47.7936 22.4556 47.5842 22.4639 47.3754 22.4763C47.1205 22.4915 46.8658 22.5103 46.6114 22.5327C46.6032 22.5334 46.5954 22.5342 46.587 22.5347C46.3431 22.5571 46.1001 22.5817 45.8582 22.6106C59.0174 24.1614 69.2422 35.7558 69.2422 49.8318Z" fill="#F87C22"/>
<path d="M15.589 15.4418C15.5889 15.6405 15.51 15.8311 15.3694 15.9716C15.2289 16.1121 15.0383 16.1911 14.8396 16.1911C14.7412 16.1911 14.6437 16.1718 14.5528 16.1341C14.4619 16.0965 14.3793 16.0413 14.3097 15.9717C14.2401 15.9021 14.1849 15.8195 14.1472 15.7285C14.1096 15.6376 14.0902 15.5402 14.0902 15.4418C14.0902 15.3433 14.1096 15.2459 14.1472 15.155C14.1849 15.064 14.2401 14.9814 14.3097 14.9118C14.3793 14.8423 14.4619 14.7871 14.5528 14.7494C14.6437 14.7117 14.7412 14.6924 14.8396 14.6924C15.0383 14.6925 15.2289 14.7714 15.3694 14.912C15.5099 15.0525 15.5889 15.243 15.589 15.4418ZM78.2081 22.5326C78.208 22.7313 78.1291 22.9219 77.9886 23.0624C77.848 23.2029 77.6575 23.2819 77.4587 23.282C77.3603 23.282 77.2629 23.2626 77.172 23.225C77.081 23.1873 76.9984 23.1321 76.9288 23.0625C76.8592 22.9929 76.8041 22.9103 76.7664 22.8194C76.7287 22.7285 76.7094 22.631 76.7094 22.5326C76.7094 22.4342 76.7287 22.3368 76.7664 22.2458C76.8041 22.1549 76.8592 22.0723 76.9288 22.0027C76.9984 21.9331 77.081 21.8779 77.172 21.8403C77.2629 21.8026 77.3603 21.7832 77.4587 21.7832C77.6575 21.7833 77.848 21.8623 77.9886 22.0028C78.1291 22.1433 78.208 22.3339 78.2081 22.5326ZM88.2552 40.2578C88.2552 40.4566 88.1763 40.6471 88.0357 40.7877C87.8952 40.9282 87.7046 41.0072 87.5059 41.0072C87.4075 41.0072 87.31 40.9878 87.2191 40.9502C87.1282 40.9125 87.0455 40.8573 86.976 40.7877C86.9064 40.7181 86.8512 40.6355 86.8135 40.5446C86.7759 40.4537 86.7565 40.3562 86.7565 40.2578C86.7565 40.1594 86.7759 40.062 86.8135 39.971C86.8512 39.8801 86.9064 39.7975 86.976 39.7279C87.0455 39.6583 87.1282 39.6031 87.2191 39.5655C87.31 39.5278 87.4075 39.5084 87.5059 39.5085C87.7046 39.5085 87.8952 39.5874 88.0357 39.728C88.1763 39.8685 88.2552 40.0591 88.2552 40.2578Z" fill="#FD5C1E"/>
<path d="M24.1857 18.4036C22.9658 18.4036 21.9732 17.4111 21.9732 16.191C21.9732 14.9708 22.9658 13.9783 24.1857 13.9783C25.4057 13.9783 26.3982 14.9708 26.3982 16.191C26.3982 17.4111 25.4056 18.4036 24.1857 18.4036ZM24.1857 14.9774C23.5166 14.9774 22.9724 15.5218 22.9724 16.191C22.9724 16.8601 23.5166 17.4045 24.1857 17.4045C24.8548 17.4045 25.399 16.8601 25.399 16.191C25.399 15.5218 24.8548 14.9774 24.1857 14.9774ZM10.4254 32.4474C10.3747 32.4475 10.3244 32.4375 10.2775 32.4181C10.2307 32.3987 10.1881 32.3703 10.1522 32.3344C10.1163 32.2986 10.0878 32.256 10.0684 32.2091C10.049 32.1623 10.039 32.112 10.039 32.0613V31.6749C10.039 31.5632 9.99458 31.456 9.91557 31.377C9.83657 31.298 9.72941 31.2536 9.61768 31.2536C9.50595 31.2536 9.3988 31.298 9.31979 31.377C9.24079 31.456 9.19641 31.5632 9.19641 31.6749V32.0613C9.19639 32.112 9.18639 32.1623 9.16696 32.2091C9.14753 32.256 9.11906 32.2986 9.08318 32.3344C9.0473 32.3703 9.0047 32.3987 8.95783 32.4181C8.91095 32.4375 8.86072 32.4475 8.80999 32.4474H8.42357C8.31332 32.4498 8.20837 32.4952 8.13122 32.574C8.05407 32.6528 8.01086 32.7587 8.01086 32.869C8.01086 32.9793 8.05407 33.0852 8.13122 33.164C8.20837 33.2428 8.31332 33.2882 8.42357 33.2906H8.80999C8.91243 33.2905 9.01069 33.3312 9.08315 33.4036C9.15562 33.476 9.19636 33.5742 9.19641 33.6767V34.0631C9.19641 34.1748 9.24079 34.282 9.31979 34.361C9.3988 34.44 9.50595 34.4844 9.61768 34.4844C9.72941 34.4844 9.83657 34.44 9.91557 34.361C9.99458 34.282 10.039 34.1748 10.039 34.0631V33.6767C10.039 33.626 10.049 33.5757 10.0684 33.5289C10.0878 33.482 10.1163 33.4394 10.1522 33.4036C10.1881 33.3677 10.2307 33.3393 10.2775 33.3199C10.3244 33.3005 10.3747 33.2905 10.4254 33.2906H10.8118C10.9221 33.2882 11.027 33.2428 11.1041 33.164C11.1813 33.0852 11.2245 32.9793 11.2245 32.869C11.2245 32.7587 11.1813 32.6528 11.1041 32.574C11.027 32.4952 10.9221 32.4498 10.8118 32.4474H10.4254ZM73.4032 16.9232C73.3387 16.9233 73.2748 16.9106 73.2151 16.8859C73.1555 16.8612 73.1013 16.8249 73.0557 16.7793C73.0101 16.7336 72.9739 16.6794 72.9492 16.6198C72.9245 16.5601 72.9119 16.4962 72.9119 16.4317V15.9401C72.9119 15.7979 72.8554 15.6616 72.7548 15.5611C72.6543 15.4606 72.5179 15.4041 72.3757 15.4042C72.2336 15.4041 72.0972 15.4606 71.9966 15.5611C71.8961 15.6616 71.8396 15.7979 71.8395 15.9401V16.4317C71.8396 16.4962 71.8269 16.5602 71.8022 16.6199C71.7775 16.6795 71.7412 16.7337 71.6956 16.7794C71.6499 16.8251 71.5957 16.8613 71.536 16.8859C71.4763 16.9106 71.4123 16.9233 71.3478 16.9232H70.8565C70.7143 16.9232 70.5778 16.9797 70.4773 17.0803C70.3767 17.1809 70.3202 17.3173 70.3202 17.4595C70.3202 17.6017 70.3767 17.7381 70.4773 17.8387C70.5778 17.9393 70.7143 17.9958 70.8565 17.9958H71.3478C71.4124 17.9957 71.4763 18.0084 71.536 18.0331C71.5957 18.0578 71.6499 18.094 71.6956 18.1397C71.7413 18.1853 71.7775 18.2396 71.8022 18.2993C71.8269 18.359 71.8396 18.4229 71.8395 18.4875V18.9791C71.8396 19.1213 71.8961 19.2576 71.9966 19.3581C72.0972 19.4586 72.2336 19.515 72.3757 19.515C72.5179 19.515 72.6542 19.4586 72.7548 19.3581C72.8553 19.2576 72.9119 19.1212 72.9119 18.9791V18.4875C72.9119 18.423 72.9246 18.359 72.9492 18.2994C72.9739 18.2397 73.0101 18.1855 73.0557 18.1398C73.1013 18.0941 73.1555 18.0579 73.2151 18.0332C73.2748 18.0085 73.3387 17.9958 73.4032 17.9958H73.895C74.036 17.9939 74.1706 17.9366 74.2696 17.8362C74.3686 17.7358 74.4242 17.6005 74.4242 17.4595C74.4242 17.3185 74.3686 17.1832 74.2696 17.0828C74.1706 16.9824 74.036 16.9251 73.895 16.9232H73.4032Z" fill="#2BA9FC"/>
<path d="M9.25914 20.3123C9.12246 20.3123 8.99139 20.2579 8.89474 20.1613C8.7981 20.0646 8.74378 19.9336 8.74373 19.7969V19.2815C8.74373 19.1324 8.68449 18.9894 8.57905 18.8839C8.47361 18.7785 8.3306 18.7192 8.18148 18.7192C8.03237 18.7192 7.88936 18.7785 7.78392 18.8839C7.67848 18.9894 7.61924 19.1324 7.61924 19.2815V19.7969C7.61919 19.9336 7.56487 20.0646 7.46823 20.1613C7.37158 20.2579 7.24051 20.3123 7.10383 20.3123H6.58842C6.51371 20.3109 6.43948 20.3245 6.37007 20.3521C6.30065 20.3797 6.23744 20.4209 6.18412 20.4733C6.13081 20.5256 6.08846 20.5881 6.05955 20.657C6.03064 20.7259 6.01575 20.7998 6.01575 20.8745C6.01575 20.9493 6.03064 21.0232 6.05955 21.0921C6.08846 21.161 6.13081 21.2235 6.18412 21.2758C6.23744 21.3282 6.30065 21.3694 6.37007 21.397C6.43948 21.4246 6.51371 21.4382 6.58842 21.4368H7.10383C7.24051 21.4368 7.37158 21.4912 7.46823 21.5878C7.56487 21.6845 7.61919 21.8155 7.61924 21.9522V22.4676C7.61924 22.6167 7.67848 22.7597 7.78392 22.8652C7.88936 22.9706 8.03237 23.0299 8.18148 23.0299C8.3306 23.0299 8.47361 22.9706 8.57905 22.8652C8.68449 22.7597 8.74373 22.6167 8.74373 22.4676V21.9522C8.74378 21.8155 8.7981 21.6845 8.89474 21.5878C8.99139 21.4912 9.12246 21.4368 9.25914 21.4368H9.77455C9.84926 21.4382 9.92348 21.4246 9.9929 21.397C10.0623 21.3694 10.1255 21.3282 10.1788 21.2758C10.2322 21.2235 10.2745 21.161 10.3034 21.0921C10.3323 21.0232 10.3472 20.9493 10.3472 20.8745C10.3472 20.7998 10.3323 20.7259 10.3034 20.657C10.2745 20.5881 10.2322 20.5256 10.1788 20.4733C10.1255 20.4209 10.0623 20.3797 9.9929 20.3521C9.92348 20.3245 9.84926 20.3109 9.77455 20.3123H9.25914Z" fill="#FD5C1E"/>
<path d="M17.476 23.9096C17.4208 23.9096 17.3662 23.8987 17.3152 23.8776C17.2642 23.8565 17.2179 23.8255 17.1789 23.7865C17.1399 23.7474 17.1089 23.7011 17.0879 23.6501C17.0668 23.5991 17.0559 23.5444 17.056 23.4892V23.0687C17.056 22.9471 17.0077 22.8304 16.9217 22.7444C16.8357 22.6584 16.719 22.6101 16.5974 22.6101C16.4757 22.6101 16.3591 22.6584 16.2731 22.7444C16.1871 22.8304 16.1388 22.9471 16.1388 23.0687V23.4892C16.1388 23.5444 16.1279 23.5991 16.1068 23.6501C16.0856 23.7011 16.0546 23.7475 16.0156 23.7865C15.9765 23.8255 15.9302 23.8565 15.8792 23.8776C15.8281 23.8987 15.7735 23.9096 15.7183 23.9096H15.2982C15.238 23.9095 15.1783 23.9213 15.1226 23.9444C15.067 23.9674 15.0164 24.0012 14.9738 24.0438C14.9312 24.0864 14.8974 24.1369 14.8744 24.1926C14.8514 24.2483 14.8395 24.3079 14.8396 24.3682C14.8395 24.4284 14.8514 24.4881 14.8744 24.5437C14.8974 24.5994 14.9312 24.65 14.9738 24.6926C15.0164 24.7352 15.067 24.7689 15.1226 24.792C15.1783 24.815 15.238 24.8268 15.2982 24.8268H15.7183C15.7735 24.8268 15.8281 24.8376 15.8792 24.8587C15.9302 24.8798 15.9765 24.9108 16.0156 24.9498C16.0546 24.9889 16.0856 25.0352 16.1068 25.0862C16.1279 25.1372 16.1388 25.1919 16.1388 25.2471V25.6676C16.1388 25.7893 16.1871 25.9059 16.2731 25.9919C16.3591 26.0779 16.4757 26.1262 16.5974 26.1262C16.719 26.1262 16.8357 26.0779 16.9217 25.9919C17.0077 25.9059 17.056 25.7893 17.056 25.6676V25.2471C17.0559 25.1919 17.0668 25.1373 17.0879 25.0863C17.1089 25.0353 17.1399 24.9889 17.1789 24.9499C17.2179 24.9108 17.2642 24.8799 17.3152 24.8588C17.3662 24.8376 17.4208 24.8268 17.476 24.8268H17.8965C18.0182 24.8268 18.1348 24.7785 18.2208 24.6925C18.3068 24.6065 18.3552 24.4898 18.3552 24.3682C18.3552 24.2465 18.3068 24.1299 18.2208 24.0439C18.1348 23.9579 18.0182 23.9096 17.8965 23.9096H17.476ZM87.6977 23.9096C87.6425 23.9096 87.5878 23.8987 87.5369 23.8776C87.4859 23.8565 87.4396 23.8255 87.4005 23.7865C87.3615 23.7474 87.3306 23.7011 87.3095 23.6501C87.2884 23.5991 87.2776 23.5444 87.2776 23.4892V23.0687C87.2776 22.9471 87.2293 22.8304 87.1433 22.7444C87.0573 22.6584 86.9407 22.6101 86.819 22.6101C86.6974 22.6101 86.5808 22.6584 86.4947 22.7444C86.4087 22.8304 86.3604 22.9471 86.3604 23.0687V23.4892C86.3604 23.5444 86.3495 23.5991 86.3284 23.6501C86.3073 23.7011 86.2763 23.7475 86.2372 23.7865C86.1982 23.8255 86.1518 23.8565 86.1008 23.8776C86.0498 23.8987 85.9951 23.9096 85.9399 23.9096H85.5199C85.4596 23.9095 85.4 23.9213 85.3443 23.9444C85.2886 23.9674 85.2381 24.0012 85.1955 24.0438C85.1529 24.0864 85.1191 24.1369 85.0961 24.1926C85.073 24.2483 85.0612 24.3079 85.0612 24.3682C85.0612 24.4284 85.073 24.4881 85.0961 24.5437C85.1191 24.5994 85.1529 24.65 85.1955 24.6926C85.2381 24.7352 85.2886 24.7689 85.3443 24.792C85.4 24.815 85.4596 24.8268 85.5199 24.8268H85.9399C85.9951 24.8268 86.0498 24.8376 86.1008 24.8587C86.1518 24.8798 86.1982 24.9108 86.2372 24.9498C86.2763 24.9889 86.3073 25.0352 86.3284 25.0862C86.3495 25.1372 86.3604 25.1919 86.3604 25.2471V25.6676C86.3604 25.7893 86.4087 25.9059 86.4947 25.9919C86.5808 26.0779 86.6974 26.1262 86.819 26.1262C86.9407 26.1262 87.0573 26.0779 87.1433 25.9919C87.2293 25.9059 87.2776 25.7893 87.2776 25.6676V25.2471C87.2776 25.1919 87.2884 25.1373 87.3095 25.0863C87.3306 25.0353 87.3615 24.9889 87.4005 24.9499C87.4396 24.9108 87.4859 24.8799 87.5369 24.8588C87.5878 24.8376 87.6425 24.8268 87.6977 24.8268H88.1182C88.2398 24.8268 88.3565 24.7785 88.4425 24.6925C88.5285 24.6065 88.5768 24.4898 88.5768 24.3682C88.5768 24.2465 88.5285 24.1299 88.4425 24.0439C88.3565 23.9579 88.2398 23.9096 88.1182 23.9096H87.6977Z" fill="#FED62C"/>
<path d="M80.9559 30.6855C80.9119 30.6855 80.8682 30.6942 80.8275 30.711C80.7868 30.7279 80.7499 30.7526 80.7187 30.7837C80.6876 30.8149 80.6629 30.8519 80.6461 30.8926C80.6292 30.9333 80.6206 30.9769 80.6207 31.021L80.6202 32.4953C80.6204 32.5843 80.6558 32.6696 80.7187 32.7325C80.7816 32.7954 80.8669 32.8308 80.9559 32.831C81.0448 32.8307 81.13 32.7953 81.1928 32.7323C81.2556 32.6694 81.2909 32.5842 81.291 32.4953V31.021C81.291 30.9321 81.2557 30.8468 81.1929 30.7839C81.13 30.721 81.0448 30.6856 80.9559 30.6855ZM80.9553 35.7801C80.8665 35.7802 80.7813 35.8155 80.7185 35.8783C80.6557 35.9411 80.6203 36.0262 80.6202 36.115L80.6207 37.5901C80.6207 37.6341 80.6293 37.6777 80.6462 37.7183C80.663 37.759 80.6877 37.7959 80.7189 37.827C80.75 37.8581 80.787 37.8827 80.8276 37.8995C80.8683 37.9163 80.9119 37.9249 80.9559 37.9248C80.9999 37.9248 81.0434 37.9162 81.0841 37.8994C81.1247 37.8826 81.1617 37.858 81.1928 37.8269C81.2239 37.7958 81.2486 37.7589 81.2655 37.7183C81.2823 37.6777 81.291 37.6341 81.291 37.5901V36.115C81.291 36.071 81.2823 36.0274 81.2654 35.9867C81.2485 35.9461 81.2237 35.9091 81.1926 35.878C81.1614 35.8469 81.1244 35.8223 81.0837 35.8055C81.043 35.7887 80.9994 35.78 80.9553 35.7801ZM79.4391 33.2627C79.4702 33.2938 79.5071 33.3185 79.5478 33.3354C79.5884 33.3522 79.632 33.3609 79.676 33.3608C79.72 33.3608 79.7636 33.3521 79.8042 33.3352C79.8449 33.3183 79.8818 33.2936 79.9128 33.2624C79.944 33.2313 79.9688 33.1944 79.9857 33.1537C80.0026 33.1131 80.0113 33.0695 80.0113 33.0254C80.0113 32.9814 80.0026 32.9378 79.9857 32.8971C79.9688 32.8564 79.944 32.8195 79.9128 32.7884L78.8702 31.7458C78.8069 31.6853 78.7224 31.6519 78.6349 31.6528C78.5473 31.6537 78.4635 31.6889 78.4015 31.7508C78.3396 31.8128 78.3043 31.8965 78.3033 31.9841C78.3022 32.0717 78.3355 32.1562 78.396 32.2195L79.4391 33.2627ZM82.4721 35.3481C82.441 35.317 82.4041 35.2923 82.3635 35.2754C82.3228 35.2585 82.2793 35.2499 82.2353 35.2499C82.1913 35.2499 82.1477 35.2585 82.1071 35.2754C82.0664 35.2923 82.0295 35.317 81.9984 35.3481C81.9356 35.411 81.9004 35.4963 81.9004 35.5852C81.9004 35.6741 81.9356 35.7594 81.9984 35.8223L83.0415 36.8649C83.0726 36.896 83.1096 36.9207 83.1502 36.9375C83.1909 36.9543 83.2344 36.963 83.2784 36.963C83.3224 36.9629 83.366 36.9543 83.4067 36.9374C83.4473 36.9206 83.4842 36.8959 83.5153 36.8647C83.5464 36.8336 83.5711 36.7967 83.5879 36.756C83.6048 36.7154 83.6134 36.6718 83.6134 36.6278C83.6134 36.5838 83.6047 36.5402 83.5879 36.4996C83.571 36.4589 83.5463 36.422 83.5152 36.3909L82.4721 35.3481ZM79.481 34.3053C79.481 34.2165 79.4456 34.1313 79.3828 34.0685C79.3199 34.0057 79.2347 33.9704 79.1459 33.9704H77.6716C77.6271 33.9696 77.5829 33.9777 77.5415 33.9942C77.5002 34.0108 77.4626 34.0353 77.4309 34.0665C77.3992 34.0977 77.374 34.1349 77.3568 34.176C77.3396 34.217 77.3307 34.261 77.3307 34.3055C77.3307 34.35 77.3396 34.3941 77.3568 34.4351C77.374 34.4762 77.3992 34.5134 77.4309 34.5446C77.4626 34.5758 77.5002 34.6003 77.5415 34.6168C77.5829 34.6333 77.6271 34.6415 77.6716 34.6407H79.1459C79.1899 34.6407 79.2335 34.632 79.2742 34.6152C79.3149 34.5983 79.3518 34.5736 79.3829 34.5425C79.4141 34.5113 79.4388 34.4743 79.4556 34.4336C79.4724 34.3929 79.481 34.3493 79.481 34.3053ZM84.2402 33.9704H82.7654C82.7214 33.9703 82.6778 33.979 82.6372 33.9958C82.5965 34.0127 82.5596 34.0374 82.5285 34.0685C82.4974 34.0996 82.4728 34.1366 82.456 34.1773C82.4392 34.2179 82.4306 34.2615 82.4307 34.3055C82.4306 34.3495 82.4392 34.3932 82.456 34.4339C82.4728 34.4746 82.4975 34.5115 82.5286 34.5427C82.5598 34.5738 82.5968 34.5985 82.6375 34.6153C82.6782 34.6321 82.7218 34.6407 82.7658 34.6406H84.2402C84.4256 34.6406 84.5753 34.4903 84.5753 34.3052C84.5753 34.1201 84.4256 33.9696 84.2402 33.9704ZM79.4391 35.3481L78.396 36.3909C78.3333 36.4538 78.298 36.539 78.298 36.6279C78.298 36.7168 78.3333 36.802 78.396 36.8649C78.5273 36.9954 78.7395 36.9964 78.8702 36.8649L79.9128 35.8223C79.944 35.7912 79.9688 35.7542 79.9857 35.7136C80.0026 35.6729 80.0113 35.6292 80.0113 35.5852C80.0113 35.5411 80.0026 35.4975 79.9857 35.4568C79.9688 35.4161 79.944 35.3792 79.9128 35.3481C79.8817 35.317 79.8448 35.2923 79.8042 35.2754C79.7635 35.2585 79.72 35.2499 79.676 35.2499C79.632 35.2499 79.5884 35.2585 79.5478 35.2754C79.5071 35.2923 79.4702 35.317 79.4391 35.3481ZM82.4727 33.2627L83.5153 32.2196C83.5781 32.1568 83.6133 32.0716 83.6133 31.9828C83.6133 31.8939 83.5781 31.8088 83.5153 31.7459C83.4842 31.7148 83.4473 31.6901 83.4067 31.6732C83.366 31.6563 83.3224 31.6477 83.2784 31.6477C83.2344 31.6477 83.1909 31.6563 83.1502 31.6732C83.1096 31.6901 83.0727 31.7148 83.0416 31.7459L81.9985 32.7887C81.9357 32.8516 81.9005 32.9368 81.9005 33.0257C81.9005 33.1146 81.9357 33.1998 81.9985 33.2627C82.0296 33.2939 82.0666 33.3187 82.1072 33.3356C82.1479 33.3524 82.1915 33.3611 82.2356 33.3611C82.2797 33.3611 82.3233 33.3524 82.364 33.3356C82.4046 33.3187 82.4416 33.2939 82.4727 33.2627Z" fill="#FED62C"/>
<path d="M39.7089 48.0051C39.7088 48.1801 39.7432 48.3533 39.8102 48.515C39.8771 48.6766 39.9752 48.8235 40.0989 48.9473C40.2226 49.071 40.3695 49.1692 40.5311 49.2361C40.6928 49.3031 40.866 49.3376 41.041 49.3376C41.216 49.3376 41.3892 49.3031 41.5509 49.2361C41.7125 49.1692 41.8594 49.071 41.9831 48.9473C42.1068 48.8235 42.2049 48.6766 42.2718 48.515C42.3387 48.3533 42.3732 48.1801 42.3731 48.0051C42.3732 47.8301 42.3387 47.6569 42.2718 47.4952C42.2049 47.3335 42.1068 47.1866 41.9831 47.0629C41.8594 46.9392 41.7125 46.841 41.5509 46.774C41.3892 46.7071 41.216 46.6726 41.041 46.6726C40.866 46.6726 40.6928 46.7071 40.5311 46.774C40.3695 46.841 40.2226 46.9392 40.0989 47.0629C39.9752 47.1866 39.8771 47.3335 39.8102 47.4952C39.7432 47.6569 39.7088 47.8301 39.7089 48.0051Z" fill="black"/>
<path d="M37.0688 51.9186C37.0688 52.3979 37.2593 52.8576 37.5982 53.1965C37.9371 53.5355 38.3968 53.7259 38.8761 53.7259C39.3554 53.7259 39.8151 53.5355 40.154 53.1965C40.493 52.8576 40.6834 52.3979 40.6834 51.9186C40.6834 51.4393 40.493 50.9796 40.154 50.6407C39.8151 50.3017 39.3554 50.1113 38.8761 50.1113C38.3968 50.1113 37.9371 50.3017 37.5982 50.6407C37.2593 50.9796 37.0688 51.4393 37.0688 51.9186Z" fill="#FEBB29"/>
<path d="M57.0201 51.9186C57.0201 52.9166 56.2107 53.726 55.2131 53.726C54.2149 53.726 53.4055 52.9166 53.4055 51.9186C53.4055 50.9206 54.2149 50.1113 55.2131 50.1113C56.2107 50.1112 57.0201 50.9206 57.0201 51.9186Z" fill="#FEBB29"/>
<path d="M54.2384 48.005C54.2384 48.7404 53.6418 49.3371 52.9061 49.3371C52.1709 49.3371 51.5742 48.7405 51.5742 48.005C51.5742 47.2695 52.1708 46.6729 52.9061 46.6729C53.6417 46.6729 54.2384 47.2696 54.2384 48.005ZM50.4827 51.02C50.6037 50.5446 50.1944 50.1402 49.7031 50.1402H44.3688C43.8775 50.1402 43.468 50.5446 43.5894 51.02C43.9807 52.5588 45.3763 53.6967 47.0359 53.6967C48.6962 53.6967 50.091 52.5588 50.4827 51.02Z" fill="black"/>
<path d="M48.7239 52.4687C48.7239 52.9466 47.9682 53.3342 47.0358 53.3342C46.104 53.3342 45.3478 52.9465 45.3478 52.4687C45.3478 51.9908 46.104 51.6033 47.0358 51.6033C47.9682 51.6032 48.7239 51.9908 48.7239 52.4687Z" fill="#F27E38"/>
<path d="M18.624 56.1992C18.0929 56.1992 17.6207 55.8214 17.5202 55.2806C17.188 53.4953 17.0197 51.6621 17.0197 49.8316C17.0197 33.5103 30.2982 20.2317 46.6198 20.2317C53.3974 20.2317 59.7748 22.461 65.0623 26.6783C65.5477 27.0652 65.6273 27.7726 65.2401 28.2578C64.8537 28.7432 64.1463 28.823 63.6607 28.4356C58.7754 24.5393 52.8827 22.4797 46.6197 22.4797C31.5377 22.4797 19.2677 34.7496 19.2677 49.8315C19.2677 51.5244 19.4233 53.2192 19.7302 54.8693C19.8439 55.4796 19.4411 56.0665 18.8308 56.1799C18.7614 56.1929 18.6921 56.1992 18.624 56.1992ZM21.1602 63.7233C20.9516 63.7235 20.7471 63.6656 20.5695 63.5562C20.3919 63.4467 20.2483 63.29 20.1548 63.1035C19.6336 62.0655 19.174 60.9976 18.7785 59.9055C18.5672 59.3218 18.8692 58.6773 19.453 58.466C20.037 58.2556 20.6812 58.5568 20.8925 59.1406C21.2578 60.1494 21.6823 61.1358 22.1638 62.0946C22.4424 62.6494 22.2187 63.3248 21.6638 63.6036C21.5076 63.6823 21.3351 63.7233 21.1602 63.7233ZM72.0182 63.8431C71.8469 63.8431 71.673 63.8039 71.5098 63.7209C70.9563 63.4393 70.7359 62.7627 71.0171 62.2095C72.9776 58.3529 73.9717 54.1885 73.9717 49.8316C73.9717 45.1423 72.7654 40.5165 70.4832 36.4548C70.179 35.9138 70.3712 35.2283 70.9125 34.9244C71.4536 34.6207 72.1393 34.8127 72.443 35.3537C74.9138 39.7509 76.2198 44.7574 76.2198 49.8316C76.2198 54.5458 75.1436 59.0533 73.0213 63.2282C72.9272 63.4134 72.7837 63.5689 72.6066 63.6774C72.4296 63.7859 72.2259 63.8433 72.0182 63.8431ZM69.4949 33.993C69.3136 33.9933 69.1348 33.9496 68.974 33.8658C68.8133 33.7819 68.6752 33.6604 68.5716 33.5115C68.0108 32.7065 67.7025 32.3406 67.1814 31.7764C66.7605 31.3203 66.7887 30.6092 67.2449 30.1879C67.7009 29.7669 68.4118 29.7949 68.8334 30.2514C69.4047 30.8705 69.7875 31.3237 70.4163 32.2265C70.7712 32.7358 70.6459 33.4363 70.1366 33.7913C69.9484 33.9227 69.7244 33.9931 69.4949 33.993ZM82.0897 64.0175H78.8424C78.2216 64.0175 77.7184 63.5143 77.7184 62.8935C77.7184 62.2727 78.2217 61.7695 78.8424 61.7695H82.0896C82.7105 61.7695 83.2137 62.2727 83.2137 62.8935C83.2137 63.5143 82.7105 64.0175 82.0897 64.0175Z" fill="black"/>
<path d="M75.0957 64.0176H44.3715C43.7506 64.0176 43.2475 63.5143 43.2475 62.8935C43.2475 62.2728 43.7507 61.7695 44.3715 61.7695H75.0956C75.7165 61.7695 76.2196 62.2728 76.2196 62.8935C76.2196 63.5143 75.7165 64.0176 75.0957 64.0176ZM40.3749 64.0176H12.482C11.8612 64.0176 11.358 63.5143 11.358 62.8935C11.358 62.2728 11.8613 61.7695 12.482 61.7695H40.3749C40.9958 61.7695 41.4989 62.2728 41.4989 62.8935C41.4989 63.5143 40.9958 64.0176 40.3749 64.0176ZM67.1024 69.3463H57.8603C57.2394 69.3463 56.7363 68.843 56.7363 68.2223C56.7363 67.6015 57.2395 67.0982 57.8603 67.0982H67.1024C67.7233 67.0982 68.2265 67.6015 68.2265 68.2223C68.2265 68.843 67.7233 69.3463 67.1024 69.3463ZM53.5095 69.3463H18.9066C18.2857 69.3463 17.7825 68.843 17.7825 68.2223C17.7825 67.6015 18.2858 67.0982 18.9066 67.0982H53.5095C54.1303 67.0982 54.6335 67.6015 54.6335 68.2223C54.6335 68.843 54.1303 69.3463 53.5095 69.3463ZM60.046 75.4243H33.3808C32.76 75.4243 32.2568 74.9211 32.2568 74.3003C32.2568 73.6796 32.7601 73.1763 33.3808 73.1763H60.046C60.6668 73.1763 61.17 73.6796 61.17 74.3003C61.17 74.9211 60.6667 75.4243 60.046 75.4243ZM29.4938 75.4243H26.137C25.5162 75.4243 25.013 74.9211 25.013 74.3003C25.013 73.6796 25.5163 73.1763 26.137 73.1763H29.4938C30.1146 73.1763 30.6178 73.6796 30.6178 74.3003C30.6178 74.9211 30.1145 75.4243 29.4938 75.4243ZM51.5737 80.337H39.7504C39.1296 80.337 38.6264 79.8338 38.6264 79.213C38.6264 78.5922 39.1297 78.089 39.7504 78.089H51.5737C52.1945 78.089 52.6977 78.5922 52.6977 79.213C52.6977 79.8338 52.1944 80.337 51.5737 80.337Z" fill="black"/>
</svg>
