<svg width="113" height="122" viewBox="0 0 113 122" fill="none" xmlns="http://www.w3.org/2000/svg">
<path d="M41.008 109.584C40.9013 111.675 40.848 113.339 40.848 114.576C40.848 115.216 40.864 115.824 40.896 116.4C40.9813 116.464 41.1467 116.496 41.392 116.496L41.76 116.48C41.9093 116.459 42.048 116.448 42.176 116.448C42.4533 116.448 42.6667 116.496 42.816 116.592C42.976 116.688 43.056 116.875 43.056 117.152C43.056 117.419 42.976 117.627 42.816 117.776C42.6667 117.925 42.352 118 41.872 118C41.4667 118 40.976 117.968 40.4 117.904C40.2613 117.893 40.128 117.883 40 117.872C39.872 117.861 39.7547 117.856 39.648 117.856C39.0613 117.867 38.624 117.888 38.336 117.92C38.048 117.952 37.7227 117.968 37.36 117.968C37.0293 117.968 36.864 117.717 36.864 117.216C36.864 116.736 37.1733 116.496 37.792 116.496C37.888 116.496 38.0427 116.507 38.256 116.528C38.4373 116.56 38.6293 116.576 38.832 116.576C38.9493 116.576 39.0453 116.571 39.12 116.56C39.1307 115.845 39.168 114.805 39.232 113.44C39.296 111.84 39.328 110.656 39.328 109.888C39.2747 109.899 39.088 109.973 38.768 110.112C38.2773 110.357 37.9147 110.48 37.68 110.48C37.552 110.48 37.4347 110.416 37.328 110.288C37.2213 110.149 37.168 109.989 37.168 109.808C37.168 109.627 37.28 109.451 37.504 109.28C37.728 109.109 38.0907 108.885 38.592 108.608C38.8693 108.469 39.136 108.315 39.392 108.144C39.456 108.101 39.5467 108.059 39.664 108.016C39.792 107.973 39.888 107.952 39.952 107.952C40.2293 107.952 40.48 108.011 40.704 108.128C40.9387 108.235 41.056 108.379 41.056 108.56L41.008 109.584ZM46.4779 116.336C46.8405 116.357 47.0805 116.368 47.1979 116.368C47.5605 116.368 47.8805 116.363 48.1579 116.352C48.4459 116.341 48.6912 116.331 48.8939 116.32C49.4165 116.288 49.8859 116.272 50.3019 116.272C50.7072 116.272 51.0059 116.379 51.1979 116.592C51.3899 116.805 51.4859 117.088 51.4859 117.44C51.4859 117.611 51.3739 117.749 51.1499 117.856C50.9259 117.952 50.6965 118 50.4619 118C50.2592 118 49.8379 117.979 49.1979 117.936C48.4299 117.872 47.8272 117.84 47.3899 117.84C47.1552 117.84 46.8779 117.856 46.5579 117.888C46.4299 117.899 46.2752 117.909 46.0939 117.92C45.9125 117.931 45.7099 117.936 45.4859 117.936C45.0592 117.936 44.7339 117.877 44.5099 117.76C44.2859 117.643 44.1739 117.429 44.1739 117.12C44.1739 116.853 44.2805 116.581 44.4939 116.304C44.7072 116.027 45.0059 115.696 45.3899 115.312L45.7739 114.928C45.9445 114.747 46.2592 114.437 46.7179 114C47.4752 113.317 48.0619 112.715 48.4779 112.192C48.9045 111.669 49.1179 111.152 49.1179 110.64C49.1179 110.309 48.9579 110.043 48.6379 109.84C48.3285 109.627 47.9712 109.52 47.5659 109.52C46.9472 109.52 46.4992 109.659 46.2219 109.936C45.9552 110.203 45.8219 110.592 45.8219 111.104C45.8219 111.232 45.7472 111.349 45.5979 111.456C45.4592 111.552 45.2832 111.6 45.0699 111.6C44.7712 111.6 44.5632 111.493 44.4459 111.28C44.3285 111.067 44.2699 110.805 44.2699 110.496C44.2699 110.005 44.4192 109.573 44.7179 109.2C45.0165 108.816 45.4219 108.517 45.9339 108.304C46.4565 108.091 47.0325 107.984 47.6619 107.984C48.1099 107.984 48.5739 108.096 49.0539 108.32C49.5445 108.533 49.9499 108.827 50.2699 109.2C50.6005 109.563 50.7659 109.963 50.7659 110.4C50.7659 111.061 50.6005 111.691 50.2699 112.288C49.9392 112.885 49.5499 113.419 49.1019 113.888C48.6645 114.347 48.0939 114.891 47.3899 115.52C47.0485 115.808 46.7445 116.08 46.4779 116.336ZM63.5655 117.232C63.5655 117.467 63.4375 117.664 63.1815 117.824C62.9362 117.984 62.7068 118.064 62.4935 118.064C62.0882 118.064 61.7628 118.016 61.5175 117.92C61.2828 117.813 61.0642 117.621 60.8615 117.344C60.5842 117.589 60.2055 117.776 59.7255 117.904C59.2455 118.021 58.8028 118.08 58.3975 118.08C57.7362 118.08 57.1922 117.904 56.7655 117.552C56.3388 117.189 56.1255 116.661 56.1255 115.968C56.1255 115.669 56.2055 115.397 56.3655 115.152C56.5255 114.896 56.7442 114.672 57.0215 114.48C57.3308 114.277 57.6828 114.123 58.0775 114.016C58.4722 113.899 58.8828 113.84 59.3095 113.84C59.5335 113.84 59.8002 113.883 60.1095 113.968C60.4188 114.053 60.6588 114.144 60.8295 114.24V113.984C60.8295 113.408 60.6908 113.013 60.4135 112.8C60.1362 112.576 59.6882 112.464 59.0695 112.464C58.8882 112.464 58.7068 112.501 58.5255 112.576C58.3548 112.651 58.1575 112.752 57.9335 112.88C57.6348 113.04 57.3522 113.12 57.0855 113.12C56.9895 113.12 56.8988 113.056 56.8135 112.928C56.7282 112.789 56.6855 112.667 56.6855 112.56C56.6855 112.251 56.8295 111.984 57.1175 111.76C57.4162 111.536 57.7682 111.371 58.1735 111.264C58.5788 111.147 58.9415 111.088 59.2615 111.088C59.5815 111.088 59.9495 111.152 60.3655 111.28C60.7815 111.397 61.1228 111.563 61.3895 111.776C61.7095 112.053 61.9548 112.379 62.1255 112.752C62.3068 113.115 62.3975 113.515 62.3975 113.952C62.3975 114.091 62.3868 114.299 62.3655 114.576C62.3442 114.875 62.3335 115.131 62.3335 115.344C62.3335 115.44 62.3228 115.584 62.3015 115.776C62.2802 116.011 62.2695 116.197 62.2695 116.336C62.2695 116.464 62.3175 116.576 62.4135 116.672C62.5095 116.757 62.6215 116.8 62.7495 116.8L63.1975 116.784C63.3148 116.784 63.4055 116.827 63.4695 116.912C63.5335 116.997 63.5655 117.104 63.5655 117.232ZM58.4135 116.816C58.8722 116.816 59.2562 116.768 59.5655 116.672C59.8748 116.576 60.2482 116.4 60.6855 116.144C60.7282 115.963 60.7548 115.723 60.7655 115.424C60.1788 115.147 59.6935 115.008 59.3095 115.008C58.8722 115.008 58.4828 115.088 58.1415 115.248C57.8002 115.408 57.6295 115.691 57.6295 116.096C57.6295 116.299 57.7148 116.469 57.8855 116.608C58.0562 116.747 58.2322 116.816 58.4135 116.816ZM74.7253 117.44C74.5653 117.141 74.4639 116.811 74.4213 116.448C74.3786 116.075 74.3573 115.563 74.3573 114.912C74.3573 114.293 74.2719 113.755 74.1013 113.296C73.9306 112.837 73.5786 112.608 73.0453 112.608C72.8426 112.608 72.6399 112.672 72.4373 112.8C72.2453 112.917 72.1013 113.067 72.0052 113.248C71.8559 113.536 71.7546 113.851 71.7013 114.192C71.6479 114.523 71.6213 114.907 71.6213 115.344C71.6213 115.621 71.6373 115.904 71.6693 116.192C71.6693 116.277 71.6746 116.416 71.6853 116.608C71.7066 116.789 71.7173 116.955 71.7173 117.104C71.7173 117.744 71.4933 118.064 71.0453 118.064C70.4586 118.064 70.1493 117.755 70.1173 117.136C70.1173 116.699 70.1226 116.464 70.1333 116.432V115.744C70.1333 115.36 70.1173 114.987 70.0853 114.624C70.0533 114.261 70.0159 113.989 69.9733 113.808C69.8773 113.456 69.7493 113.184 69.5893 112.992C69.4399 112.8 69.1999 112.704 68.8693 112.704C68.3999 112.704 68.0213 112.907 67.7333 113.312C67.5306 113.632 67.3973 114.021 67.3333 114.48C67.2693 115.067 67.2213 115.531 67.1893 115.872C67.1679 116.203 67.1573 116.587 67.1573 117.024C67.1573 117.333 67.1039 117.584 66.9973 117.776C66.9013 117.968 66.7146 118.064 66.4373 118.064C66.2346 118.064 66.0213 118.011 65.7973 117.904C65.5839 117.787 65.4773 117.632 65.4773 117.44C65.4773 117.237 65.4986 117.035 65.5413 116.832C65.6373 116.224 65.6853 115.136 65.6853 113.568C65.6853 113.312 65.6213 113.067 65.4933 112.832C65.3759 112.587 65.2319 112.464 65.0613 112.464C65.0186 112.464 64.9386 112.485 64.8213 112.528C64.7146 112.571 64.6346 112.592 64.5813 112.592C64.4426 112.592 64.3146 112.528 64.1973 112.4C64.0906 112.272 64.0373 112.165 64.0373 112.08C64.0373 111.813 64.1653 111.589 64.4213 111.408C64.6879 111.216 64.9653 111.12 65.2533 111.12C65.6479 111.12 65.9839 111.243 66.2613 111.488C66.5386 111.733 66.7519 112.075 66.9013 112.512C67.1466 112.085 67.4773 111.744 67.8932 111.488C68.3093 111.221 68.7733 111.088 69.2853 111.088C69.6053 111.088 69.8613 111.131 70.0533 111.216C70.2559 111.291 70.4213 111.403 70.5493 111.552C70.6773 111.691 70.8426 111.904 71.0453 112.192C71.3119 111.851 71.6533 111.584 72.0693 111.392C72.4959 111.2 72.9333 111.104 73.3813 111.104C73.9146 111.104 74.3946 111.323 74.8213 111.76C75.2479 112.187 75.5359 112.683 75.6853 113.248C75.7599 113.536 75.7973 114.091 75.7973 114.912L75.8613 115.84C75.9146 116.395 76.0959 116.731 76.4053 116.848C76.7679 116.955 76.9493 117.067 76.9493 117.184C76.9493 117.44 76.8853 117.627 76.7573 117.744C76.6613 117.808 76.5279 117.877 76.3573 117.952C76.1866 118.027 76.0533 118.064 75.9573 118.064C75.3813 118.064 74.9706 117.856 74.7253 117.44Z" fill="black"/>
<path d="M84.75 51.5C84.75 65.7213 72.102 77.25 56.5 77.25C40.8979 77.25 28.25 65.7213 28.25 51.5C28.25 37.2787 40.8979 25.75 56.5 25.75C72.102 25.75 84.75 37.2787 84.75 51.5Z" fill="#191B1D"/>
<path fill-rule="evenodd" clip-rule="evenodd" d="M56.5 5.3645C58.4501 5.3645 60.0312 6.8056 60.0312 8.58325V12.8749C60.0312 14.6526 58.4501 16.0937 56.5 16.0937C54.5498 16.0937 52.9687 14.6526 52.9687 12.8749V8.58325C52.9687 6.8056 54.5498 5.3645 56.5 5.3645ZM20.7101 18.8773C22.0891 17.6203 24.325 17.6203 25.704 18.8773L27.5536 20.5632C28.9327 21.8202 28.9327 23.8582 27.5536 25.1152C26.1746 26.3722 23.9387 26.3722 22.5597 25.1152L20.7101 23.4293C19.3311 22.1723 19.3311 20.1343 20.7101 18.8773ZM92.2885 18.8784C93.6675 20.1354 93.6675 22.1734 92.2885 23.4304L90.439 25.1163C89.06 26.3733 86.824 26.3733 85.4449 25.1163C84.0658 23.8593 84.0658 21.8213 85.4449 20.5643L87.2948 18.8784C88.6739 17.6214 90.9094 17.6214 92.2885 18.8784ZM5.88538 51.4999C5.88538 49.7223 7.46639 48.2812 9.41663 48.2812H14.125C16.0752 48.2812 17.6562 49.7223 17.6562 51.4999C17.6562 53.2775 16.0752 54.7187 14.125 54.7187H9.41663C7.46639 54.7187 5.88538 53.2775 5.88538 51.4999ZM95.3437 51.4999C95.3437 49.7223 96.9248 48.2812 98.875 48.2812H103.583C105.533 48.2812 107.115 49.7223 107.115 51.4999C107.115 53.2775 105.533 54.7187 103.583 54.7187H98.875C96.9248 54.7187 95.3437 53.2775 95.3437 51.4999ZM85.4449 77.8834C86.824 76.6263 89.06 76.6263 90.439 77.8834L92.2885 79.5696C93.6675 80.8266 93.6675 82.8643 92.2885 84.1213C90.9094 85.3783 88.6739 85.3783 87.2948 84.1213L85.4449 82.4355C84.0658 81.1785 84.0658 79.1404 85.4449 77.8834ZM27.5536 77.8847C28.9327 79.1417 28.9327 81.1798 27.5536 82.4368L25.704 84.1226C24.325 85.3796 22.0891 85.3796 20.7101 84.1226C19.3311 82.8656 19.3311 80.8275 20.7101 79.5704L22.5597 77.8847C23.9387 76.6276 26.1746 76.6276 27.5536 77.8847ZM56.5 86.9062C58.4501 86.9062 60.0312 88.3473 60.0312 90.1249V94.4166C60.0312 96.1942 58.4501 97.6353 56.5 97.6353C54.5498 97.6353 52.9687 96.1942 52.9687 94.4166V90.1249C52.9687 88.3473 54.5498 86.9062 56.5 86.9062Z" fill="#191B1D"/>
</svg>
