<svg width="84" height="103" viewBox="0 0 84 103" fill="none" xmlns="http://www.w3.org/2000/svg">
<path d="M32.024 90.52C31.6613 90.6587 31.352 90.84 31.096 91.064C30.84 91.2773 30.6107 91.5387 30.408 91.848L30.152 92.248C29.96 92.536 29.816 92.7707 29.72 92.952C29.624 93.1333 29.56 93.3253 29.528 93.528C30.0507 92.9947 30.7973 92.728 31.768 92.728C32.184 92.728 32.6213 92.8453 33.08 93.08C33.5493 93.3147 33.928 93.5867 34.216 93.896C34.3973 94.0987 34.5467 94.408 34.664 94.824C34.792 95.24 34.856 95.6827 34.856 96.152C34.856 96.5253 34.744 96.9093 34.52 97.304C34.296 97.688 34.0187 98.024 33.688 98.312C33.368 98.6 33.0693 98.7813 32.792 98.856C32.3653 98.9627 31.9973 99.016 31.688 99.016C30.984 99.016 30.3333 98.824 29.736 98.44C29.1387 98.056 28.664 97.544 28.312 96.904C27.96 96.2533 27.784 95.5493 27.784 94.792C27.784 93.7467 28.0347 92.7493 28.536 91.8C29.048 90.84 29.72 90.0613 30.552 89.464C30.6907 89.368 30.936 89.2667 31.288 89.16C31.6507 89.0427 31.9707 88.984 32.248 88.984C32.7707 88.984 33.032 89.192 33.032 89.608C33.032 89.8533 32.9413 90.0453 32.76 90.184C32.5893 90.3227 32.344 90.4347 32.024 90.52ZM31.384 97.544C31.6293 97.544 31.8373 97.5333 32.008 97.512C32.1787 97.48 32.3333 97.4213 32.472 97.336C32.6853 97.1867 32.872 97.0107 33.032 96.808C33.2027 96.5947 33.288 96.392 33.288 96.2C33.288 95.464 33.1067 94.9467 32.744 94.648C32.392 94.3493 31.976 94.1947 31.496 94.184C31.2507 94.184 30.968 94.2533 30.648 94.392C30.3387 94.52 30.072 94.6907 29.848 94.904C29.6347 95.1173 29.528 95.3253 29.528 95.528C29.528 95.9867 29.624 96.3707 29.816 96.68C30.0187 96.9787 30.264 97.1973 30.552 97.336C30.84 97.4747 31.1173 97.544 31.384 97.544ZM36.6848 93.432C36.5888 93.432 36.4981 93.4427 36.4128 93.464C36.3274 93.4747 36.2421 93.48 36.1568 93.48C36.0394 93.48 35.9274 93.4267 35.8208 93.32C35.7248 93.2133 35.6768 93.1173 35.6768 93.032C35.6768 92.7547 35.8154 92.5413 36.0928 92.392C36.3701 92.232 36.6528 92.152 36.9408 92.152C37.1861 92.152 37.4368 92.2373 37.6928 92.408C37.9594 92.568 38.1568 92.776 38.2848 93.032C38.5621 92.7013 38.9034 92.4613 39.3088 92.312C39.7141 92.1627 40.1354 92.088 40.5728 92.088C41.0634 92.088 41.5168 92.2427 41.9328 92.552C42.3594 92.8613 42.6954 93.256 42.9408 93.736C43.1861 94.2053 43.3088 94.6747 43.3088 95.144C43.3088 95.6027 43.2608 96.0133 43.1648 96.376C43.0688 96.728 42.8981 97.0853 42.6528 97.448C42.3754 97.832 42.0021 98.1467 41.5328 98.392C41.0741 98.6373 40.5248 98.76 39.8848 98.76C39.7141 98.76 39.5061 98.7173 39.2608 98.632C39.0154 98.536 38.8128 98.4347 38.6528 98.328C38.5781 99.0533 38.5408 99.6827 38.5408 100.216C38.5408 100.536 38.5568 100.84 38.5888 101.128C38.6101 101.469 38.6208 101.715 38.6208 101.864C38.6208 102.099 38.5408 102.269 38.3808 102.376C38.2208 102.493 38.0448 102.552 37.8528 102.552C37.4688 102.552 37.2128 102.445 37.0848 102.232C36.9674 102.029 36.9088 101.736 36.9088 101.352C36.9514 100.435 37.0048 99.5867 37.0688 98.808C37.1328 97.848 37.1648 96.3653 37.1648 94.36C37.1648 94.168 37.1274 93.9653 37.0528 93.752C36.9781 93.5387 36.8554 93.432 36.6848 93.432ZM38.7168 96.744C38.7701 96.9467 38.9194 97.1173 39.1648 97.256C39.4208 97.384 39.6501 97.448 39.8528 97.448C40.4608 97.448 40.9141 97.2827 41.2128 96.952C41.4368 96.7173 41.5808 96.488 41.6448 96.264C41.7194 96.04 41.7568 95.6827 41.7568 95.192C41.7568 94.808 41.6821 94.488 41.5328 94.232C41.3834 93.9653 41.2021 93.7733 40.9888 93.656C40.7754 93.528 40.5728 93.464 40.3808 93.464C39.9434 93.464 39.5861 93.5973 39.3088 93.864C39.0421 94.12 38.8714 94.472 38.7968 94.92C38.7434 95.272 38.7168 95.88 38.7168 96.744ZM44.7695 93.496C44.5028 93.272 44.3695 93.0107 44.3695 92.712C44.3695 92.5627 44.4442 92.4293 44.5935 92.312C44.7428 92.184 44.9242 92.12 45.1375 92.12C45.5215 92.12 45.8362 92.2213 46.0815 92.424C46.3268 92.6267 46.5402 92.92 46.7215 93.304C46.9455 92.888 47.2282 92.584 47.5695 92.392C47.9215 92.1893 48.3642 92.088 48.8975 92.088C49.2175 92.088 49.4735 92.1307 49.6655 92.216C49.8682 92.2907 50.0335 92.4027 50.1615 92.552C50.2895 92.6907 50.4495 92.904 50.6415 93.192C50.9188 92.8507 51.2655 92.584 51.6815 92.392C52.1082 92.2 52.5455 92.104 52.9935 92.104C53.5162 92.104 53.9908 92.3227 54.4175 92.76C54.8548 93.1973 55.1482 93.6933 55.2975 94.248C55.3508 94.4827 55.3882 95.0373 55.4095 95.912L55.4735 96.84C55.5268 97.4053 55.7082 97.7413 56.0175 97.848C56.1668 97.8907 56.2895 97.944 56.3855 98.008C56.4922 98.0613 56.5455 98.12 56.5455 98.184C56.5668 98.44 56.5082 98.6267 56.3695 98.744C56.2735 98.808 56.1402 98.8773 55.9695 98.952C55.7988 99.0267 55.6655 99.064 55.5695 99.064C54.9935 99.064 54.5828 98.856 54.3375 98.44C54.1775 98.1627 54.0762 97.848 54.0335 97.496C53.9908 97.1333 53.9695 96.6427 53.9695 96.024C53.9695 95.3627 53.8895 94.7973 53.7295 94.328C53.5695 93.848 53.2068 93.608 52.6415 93.608C52.4388 93.608 52.2362 93.672 52.0335 93.8C51.8415 93.9173 51.7028 94.0667 51.6175 94.248C51.4682 94.536 51.3668 94.8507 51.3135 95.192C51.2602 95.5227 51.2335 95.9067 51.2335 96.344C51.2335 96.6213 51.2495 96.904 51.2815 97.192C51.2815 97.2773 51.2868 97.416 51.2975 97.608C51.3188 97.7893 51.3295 97.9547 51.3295 98.104C51.3295 98.3707 51.2762 98.6 51.1695 98.792C51.0735 98.9733 50.9028 99.064 50.6575 99.064C50.0708 99.064 49.7615 98.7547 49.7295 98.136C49.7295 97.6987 49.7348 97.464 49.7455 97.432V96.744C49.7455 96.36 49.7295 95.9867 49.6975 95.624C49.6655 95.2613 49.6282 94.9893 49.5855 94.808C49.4895 94.456 49.3615 94.184 49.2015 93.992C49.0415 93.8 48.7962 93.704 48.4655 93.704C48.2415 93.704 48.0335 93.7573 47.8415 93.864C47.6495 93.9707 47.4842 94.12 47.3455 94.312C47.1428 94.632 47.0095 95.0213 46.9455 95.48C46.8815 96.0667 46.8335 96.5307 46.8015 96.872C46.7802 97.2027 46.7695 97.5867 46.7695 98.024C46.7695 98.3333 46.7162 98.584 46.6095 98.776C46.5135 98.968 46.3268 99.064 46.0495 99.064C45.8468 99.064 45.6335 99.0107 45.4095 98.904C45.1962 98.7867 45.0895 98.632 45.0895 98.44C45.0895 98.2373 45.1108 98.0347 45.1535 97.832C45.2495 97.224 45.2975 96.1893 45.2975 94.728C45.2975 94.4933 45.2442 94.264 45.1375 94.04C45.0415 93.8053 44.9188 93.624 44.7695 93.496Z" fill="black"/>
<path fill-rule="evenodd" clip-rule="evenodd" d="M73.5 64.1875H10.5C9.04838 64.1875 7.875 65.291 7.875 66.6562C7.875 68.0215 9.04838 69.125 10.5 69.125H73.5C74.9516 69.125 76.125 68.0215 76.125 66.6562C76.125 65.291 74.9516 64.1875 73.5 64.1875ZM81.375 54.3125H2.625C1.17338 54.3125 0 55.416 0 56.7812C0 58.1465 1.17338 59.25 2.625 59.25H81.375C82.8266 59.25 84 58.1465 84 56.7812C84 55.416 82.8266 54.3125 81.375 54.3125ZM82.6245 49.375C83.4908 46.215 84 42.9167 84 39.5C84 17.6861 65.1971 0 42 0C18.8029 0 0 17.6861 0 39.5C0 42.9167 0.509215 46.215 1.37547 49.375H82.6245ZM55.125 74.0625H28.875C27.4234 74.0625 26.25 75.166 26.25 76.5312C26.25 77.8965 27.4234 79 28.875 79H55.125C56.5766 79 57.75 77.8965 57.75 76.5312C57.75 75.166 56.5766 74.0625 55.125 74.0625Z" fill="#191B1D"/>
</svg>
