<svg width="106" height="124" viewBox="0 0 106 124" fill="none" xmlns="http://www.w3.org/2000/svg">
<path d="M41.024 111.52C40.6613 111.659 40.352 111.84 40.096 112.064C39.84 112.277 39.6107 112.539 39.408 112.848L39.152 113.248C38.96 113.536 38.816 113.771 38.72 113.952C38.624 114.133 38.56 114.325 38.528 114.528C39.0507 113.995 39.7973 113.728 40.768 113.728C41.184 113.728 41.6213 113.845 42.08 114.08C42.5493 114.315 42.928 114.587 43.216 114.896C43.3973 115.099 43.5467 115.408 43.664 115.824C43.792 116.24 43.856 116.683 43.856 117.152C43.856 117.525 43.744 117.909 43.52 118.304C43.296 118.688 43.0187 119.024 42.688 119.312C42.368 119.6 42.0693 119.781 41.792 119.856C41.3653 119.963 40.9973 120.016 40.688 120.016C39.984 120.016 39.3333 119.824 38.736 119.44C38.1387 119.056 37.664 118.544 37.312 117.904C36.96 117.253 36.784 116.549 36.784 115.792C36.784 114.747 37.0347 113.749 37.536 112.8C38.048 111.84 38.72 111.061 39.552 110.464C39.6907 110.368 39.936 110.267 40.288 110.16C40.6507 110.043 40.9707 109.984 41.248 109.984C41.7707 109.984 42.032 110.192 42.032 110.608C42.032 110.853 41.9413 111.045 41.76 111.184C41.5893 111.323 41.344 111.435 41.024 111.52ZM40.384 118.544C40.6293 118.544 40.8373 118.533 41.008 118.512C41.1787 118.48 41.3333 118.421 41.472 118.336C41.6853 118.187 41.872 118.011 42.032 117.808C42.2027 117.595 42.288 117.392 42.288 117.2C42.288 116.464 42.1067 115.947 41.744 115.648C41.392 115.349 40.976 115.195 40.496 115.184C40.2507 115.184 39.968 115.253 39.648 115.392C39.3387 115.52 39.072 115.691 38.848 115.904C38.6347 116.117 38.528 116.325 38.528 116.528C38.528 116.987 38.624 117.371 38.816 117.68C39.0187 117.979 39.264 118.197 39.552 118.336C39.84 118.475 40.1173 118.544 40.384 118.544ZM56.1905 119.232C56.1905 119.467 56.0625 119.664 55.8065 119.824C55.5612 119.984 55.3318 120.064 55.1185 120.064C54.7132 120.064 54.3878 120.016 54.1425 119.92C53.9078 119.813 53.6892 119.621 53.4865 119.344C53.2092 119.589 52.8305 119.776 52.3505 119.904C51.8705 120.021 51.4278 120.08 51.0225 120.08C50.3612 120.08 49.8172 119.904 49.3905 119.552C48.9638 119.189 48.7505 118.661 48.7505 117.968C48.7505 117.669 48.8305 117.397 48.9905 117.152C49.1505 116.896 49.3692 116.672 49.6465 116.48C49.9558 116.277 50.3078 116.123 50.7025 116.016C51.0972 115.899 51.5078 115.84 51.9345 115.84C52.1585 115.84 52.4252 115.883 52.7345 115.968C53.0438 116.053 53.2838 116.144 53.4545 116.24V115.984C53.4545 115.408 53.3158 115.013 53.0385 114.8C52.7612 114.576 52.3132 114.464 51.6945 114.464C51.5132 114.464 51.3318 114.501 51.1505 114.576C50.9798 114.651 50.7825 114.752 50.5585 114.88C50.2598 115.04 49.9772 115.12 49.7105 115.12C49.6145 115.12 49.5238 115.056 49.4385 114.928C49.3532 114.789 49.3105 114.667 49.3105 114.56C49.3105 114.251 49.4545 113.984 49.7425 113.76C50.0412 113.536 50.3932 113.371 50.7985 113.264C51.2038 113.147 51.5665 113.088 51.8865 113.088C52.2065 113.088 52.5745 113.152 52.9905 113.28C53.4065 113.397 53.7478 113.563 54.0145 113.776C54.3345 114.053 54.5798 114.379 54.7505 114.752C54.9318 115.115 55.0225 115.515 55.0225 115.952C55.0225 116.091 55.0118 116.299 54.9905 116.576C54.9692 116.875 54.9585 117.131 54.9585 117.344C54.9585 117.44 54.9478 117.584 54.9265 117.776C54.9052 118.011 54.8945 118.197 54.8945 118.336C54.8945 118.464 54.9425 118.576 55.0385 118.672C55.1345 118.757 55.2465 118.8 55.3745 118.8L55.8225 118.784C55.9398 118.784 56.0305 118.827 56.0945 118.912C56.1585 118.997 56.1905 119.104 56.1905 119.232ZM51.0385 118.816C51.4972 118.816 51.8812 118.768 52.1905 118.672C52.4998 118.576 52.8732 118.4 53.3105 118.144C53.3532 117.963 53.3798 117.723 53.3905 117.424C52.8038 117.147 52.3185 117.008 51.9345 117.008C51.4972 117.008 51.1078 117.088 50.7665 117.248C50.4252 117.408 50.2545 117.691 50.2545 118.096C50.2545 118.299 50.3398 118.469 50.5105 118.608C50.6812 118.747 50.8572 118.816 51.0385 118.816ZM67.3503 119.44C67.1903 119.141 67.0889 118.811 67.0463 118.448C67.0036 118.075 66.9823 117.563 66.9823 116.912C66.9823 116.293 66.8969 115.755 66.7263 115.296C66.5556 114.837 66.2036 114.608 65.6703 114.608C65.4676 114.608 65.2649 114.672 65.0623 114.8C64.8703 114.917 64.7263 115.067 64.6302 115.248C64.4809 115.536 64.3796 115.851 64.3263 116.192C64.2729 116.523 64.2463 116.907 64.2463 117.344C64.2463 117.621 64.2623 117.904 64.2943 118.192C64.2943 118.277 64.2996 118.416 64.3103 118.608C64.3316 118.789 64.3423 118.955 64.3423 119.104C64.3423 119.744 64.1183 120.064 63.6703 120.064C63.0836 120.064 62.7743 119.755 62.7423 119.136C62.7423 118.699 62.7476 118.464 62.7583 118.432V117.744C62.7583 117.36 62.7423 116.987 62.7103 116.624C62.6783 116.261 62.6409 115.989 62.5983 115.808C62.5023 115.456 62.3743 115.184 62.2143 114.992C62.0649 114.8 61.8249 114.704 61.4943 114.704C61.0249 114.704 60.6463 114.907 60.3583 115.312C60.1556 115.632 60.0223 116.021 59.9583 116.48C59.8943 117.067 59.8463 117.531 59.8143 117.872C59.7929 118.203 59.7823 118.587 59.7823 119.024C59.7823 119.333 59.7289 119.584 59.6223 119.776C59.5263 119.968 59.3396 120.064 59.0623 120.064C58.8596 120.064 58.6463 120.011 58.4223 119.904C58.2089 119.787 58.1023 119.632 58.1023 119.44C58.1023 119.237 58.1236 119.035 58.1663 118.832C58.2623 118.224 58.3103 117.136 58.3103 115.568C58.3103 115.312 58.2463 115.067 58.1183 114.832C58.0009 114.587 57.8569 114.464 57.6863 114.464C57.6436 114.464 57.5636 114.485 57.4463 114.528C57.3396 114.571 57.2596 114.592 57.2063 114.592C57.0676 114.592 56.9396 114.528 56.8223 114.4C56.7156 114.272 56.6623 114.165 56.6623 114.08C56.6623 113.813 56.7903 113.589 57.0463 113.408C57.3129 113.216 57.5903 113.12 57.8783 113.12C58.2729 113.12 58.6089 113.243 58.8863 113.488C59.1636 113.733 59.3769 114.075 59.5263 114.512C59.7716 114.085 60.1023 113.744 60.5182 113.488C60.9343 113.221 61.3983 113.088 61.9103 113.088C62.2303 113.088 62.4863 113.131 62.6783 113.216C62.8809 113.291 63.0463 113.403 63.1743 113.552C63.3023 113.691 63.4676 113.904 63.6703 114.192C63.9369 113.851 64.2783 113.584 64.6943 113.392C65.1209 113.2 65.5583 113.104 66.0063 113.104C66.5396 113.104 67.0196 113.323 67.4463 113.76C67.8729 114.187 68.1609 114.683 68.3103 115.248C68.3849 115.536 68.4223 116.091 68.4223 116.912L68.4863 117.84C68.5396 118.395 68.7209 118.731 69.0303 118.848C69.3929 118.955 69.5743 119.067 69.5743 119.184C69.5743 119.44 69.5103 119.627 69.3823 119.744C69.2863 119.808 69.1529 119.877 68.9823 119.952C68.8116 120.027 68.6783 120.064 68.5823 120.064C68.0063 120.064 67.5956 119.856 67.3503 119.44Z" fill="black"/>
<path fill-rule="evenodd" clip-rule="evenodd" d="M102.467 88.1667H3.53333C1.58293 88.1667 0 89.8802 0 92.0001C0 94.1199 1.58293 95.8334 3.53333 95.8334H102.467C104.417 95.8334 106 94.1199 106 92.0001C106 89.8802 104.417 88.1667 102.467 88.1667ZM10.6 51.4204C11.9815 52.9193 14.2181 52.9193 15.5961 51.4204C16.9777 49.9216 16.9777 47.4989 15.5961 46.0001L10.6 40.5797C9.21847 39.0809 6.98539 39.0809 5.60386 40.5797C4.22233 42.0786 4.22233 44.5012 5.60386 46.0001L10.6 51.4204ZM95.4 51.4204L100.396 46.0001C101.778 44.5012 101.778 42.0786 100.396 40.5797C99.0146 39.0809 96.7815 39.0809 95.4 40.5797L90.4039 46.0001C89.0223 47.4989 89.0223 49.9216 90.4039 51.4204C91.7854 52.9193 94.0185 52.9193 95.4 51.4204ZM95.4 80.5001C92.6829 58.8762 74.5392 42.1667 53 42.1667C31.4608 42.1667 13.3171 58.8762 10.6 80.5001H95.4ZM53 34.5001C54.9504 34.5001 56.5333 32.7866 56.5333 30.6667V23.0001C56.5333 20.8841 54.9504 19.1667 53 19.1667C51.0496 19.1667 49.4667 20.8841 49.4667 23.0001V30.6667C49.4667 32.7866 51.0496 34.5001 53 34.5001Z" fill="#191B1D"/>
</svg>
