<svg width="94" height="107" viewBox="0 0 94 107" fill="none" xmlns="http://www.w3.org/2000/svg">
<path d="M38.008 94.584C37.9013 96.6747 37.848 98.3387 37.848 99.576C37.848 100.216 37.864 100.824 37.896 101.4C37.9813 101.464 38.1467 101.496 38.392 101.496L38.76 101.48C38.9093 101.459 39.048 101.448 39.176 101.448C39.4533 101.448 39.6667 101.496 39.816 101.592C39.976 101.688 40.056 101.875 40.056 102.152C40.056 102.419 39.976 102.627 39.816 102.776C39.6667 102.925 39.352 103 38.872 103C38.4667 103 37.976 102.968 37.4 102.904C37.2613 102.893 37.128 102.883 37 102.872C36.872 102.861 36.7547 102.856 36.648 102.856C36.0613 102.867 35.624 102.888 35.336 102.92C35.048 102.952 34.7227 102.968 34.36 102.968C34.0293 102.968 33.864 102.717 33.864 102.216C33.864 101.736 34.1733 101.496 34.792 101.496C34.888 101.496 35.0427 101.507 35.256 101.528C35.4373 101.56 35.6293 101.576 35.832 101.576C35.9493 101.576 36.0453 101.571 36.12 101.56C36.1307 100.845 36.168 99.8053 36.232 98.44C36.296 96.84 36.328 95.656 36.328 94.888C36.2747 94.8987 36.088 94.9733 35.768 95.112C35.2773 95.3573 34.9147 95.48 34.68 95.48C34.552 95.48 34.4347 95.416 34.328 95.288C34.2213 95.1493 34.168 94.9893 34.168 94.808C34.168 94.6267 34.28 94.4507 34.504 94.28C34.728 94.1093 35.0907 93.8853 35.592 93.608C35.8693 93.4693 36.136 93.3147 36.392 93.144C36.456 93.1013 36.5467 93.0587 36.664 93.016C36.792 92.9733 36.888 92.952 36.952 92.952C37.2293 92.952 37.48 93.0107 37.704 93.128C37.9387 93.2347 38.056 93.3787 38.056 93.56L38.008 94.584ZM43.4779 101.336C43.8405 101.357 44.0805 101.368 44.1979 101.368C44.5605 101.368 44.8805 101.363 45.1579 101.352C45.4459 101.341 45.6912 101.331 45.8939 101.32C46.4165 101.288 46.8859 101.272 47.3019 101.272C47.7072 101.272 48.0059 101.379 48.1979 101.592C48.3899 101.805 48.4859 102.088 48.4859 102.44C48.4859 102.611 48.3739 102.749 48.1499 102.856C47.9259 102.952 47.6965 103 47.4619 103C47.2592 103 46.8379 102.979 46.1979 102.936C45.4299 102.872 44.8272 102.84 44.3899 102.84C44.1552 102.84 43.8779 102.856 43.5579 102.888C43.4299 102.899 43.2752 102.909 43.0939 102.92C42.9125 102.931 42.7099 102.936 42.4859 102.936C42.0592 102.936 41.7339 102.877 41.5099 102.76C41.2859 102.643 41.1739 102.429 41.1739 102.12C41.1739 101.853 41.2805 101.581 41.4939 101.304C41.7072 101.027 42.0059 100.696 42.3899 100.312L42.7739 99.928C42.9445 99.7467 43.2592 99.4373 43.7179 99C44.4752 98.3173 45.0619 97.7147 45.4779 97.192C45.9045 96.6693 46.1179 96.152 46.1179 95.64C46.1179 95.3093 45.9579 95.0427 45.6379 94.84C45.3285 94.6267 44.9712 94.52 44.5659 94.52C43.9472 94.52 43.4992 94.6587 43.2219 94.936C42.9552 95.2027 42.8219 95.592 42.8219 96.104C42.8219 96.232 42.7472 96.3493 42.5979 96.456C42.4592 96.552 42.2832 96.6 42.0699 96.6C41.7712 96.6 41.5632 96.4933 41.4459 96.28C41.3285 96.0667 41.2699 95.8053 41.2699 95.496C41.2699 95.0053 41.4192 94.5733 41.7179 94.2C42.0165 93.816 42.4219 93.5173 42.9339 93.304C43.4565 93.0907 44.0325 92.984 44.6619 92.984C45.1099 92.984 45.5739 93.096 46.0539 93.32C46.5445 93.5333 46.9499 93.8267 47.2699 94.2C47.6005 94.5627 47.7659 94.9627 47.7659 95.4C47.7659 96.0613 47.6005 96.6907 47.2699 97.288C46.9392 97.8853 46.5499 98.4187 46.1019 98.888C45.6645 99.3467 45.0939 99.8907 44.3899 100.52C44.0485 100.808 43.7445 101.08 43.4779 101.336ZM50.0598 97.432C49.9638 97.432 49.8731 97.4427 49.7878 97.464C49.7024 97.4747 49.6171 97.48 49.5318 97.48C49.4144 97.48 49.3024 97.4267 49.1958 97.32C49.0998 97.2133 49.0518 97.1173 49.0518 97.032C49.0518 96.7547 49.1904 96.5413 49.4678 96.392C49.7451 96.232 50.0278 96.152 50.3158 96.152C50.5611 96.152 50.8118 96.2373 51.0678 96.408C51.3344 96.568 51.5318 96.776 51.6598 97.032C51.9371 96.7013 52.2784 96.4613 52.6838 96.312C53.0891 96.1627 53.5104 96.088 53.9478 96.088C54.4384 96.088 54.8918 96.2427 55.3078 96.552C55.7344 96.8613 56.0704 97.256 56.3158 97.736C56.5611 98.2053 56.6838 98.6747 56.6838 99.144C56.6838 99.6027 56.6358 100.013 56.5398 100.376C56.4438 100.728 56.2731 101.085 56.0278 101.448C55.7504 101.832 55.3771 102.147 54.9078 102.392C54.4491 102.637 53.8998 102.76 53.2598 102.76C53.0891 102.76 52.8811 102.717 52.6358 102.632C52.3904 102.536 52.1878 102.435 52.0278 102.328C51.9531 103.053 51.9158 103.683 51.9158 104.216C51.9158 104.536 51.9318 104.84 51.9638 105.128C51.9851 105.469 51.9958 105.715 51.9958 105.864C51.9958 106.099 51.9158 106.269 51.7558 106.376C51.5958 106.493 51.4198 106.552 51.2278 106.552C50.8438 106.552 50.5878 106.445 50.4598 106.232C50.3424 106.029 50.2838 105.736 50.2838 105.352C50.3264 104.435 50.3798 103.587 50.4438 102.808C50.5078 101.848 50.5398 100.365 50.5398 98.36C50.5398 98.168 50.5024 97.9653 50.4278 97.752C50.3531 97.5387 50.2304 97.432 50.0598 97.432ZM52.0918 100.744C52.1451 100.947 52.2944 101.117 52.5398 101.256C52.7958 101.384 53.0251 101.448 53.2278 101.448C53.8358 101.448 54.2891 101.283 54.5878 100.952C54.8118 100.717 54.9558 100.488 55.0198 100.264C55.0944 100.04 55.1318 99.6827 55.1318 99.192C55.1318 98.808 55.0571 98.488 54.9078 98.232C54.7584 97.9653 54.5771 97.7733 54.3638 97.656C54.1504 97.528 53.9478 97.464 53.7558 97.464C53.3184 97.464 52.9611 97.5973 52.6838 97.864C52.4171 98.12 52.2464 98.472 52.1718 98.92C52.1184 99.272 52.0918 99.88 52.0918 100.744ZM58.1445 97.496C57.8778 97.272 57.7445 97.0107 57.7445 96.712C57.7445 96.5627 57.8192 96.4293 57.9685 96.312C58.1178 96.184 58.2992 96.12 58.5125 96.12C58.8965 96.12 59.2112 96.2213 59.4565 96.424C59.7018 96.6267 59.9152 96.92 60.0965 97.304C60.3205 96.888 60.6032 96.584 60.9445 96.392C61.2965 96.1893 61.7392 96.088 62.2725 96.088C62.5925 96.088 62.8485 96.1307 63.0405 96.216C63.2432 96.2907 63.4085 96.4027 63.5365 96.552C63.6645 96.6907 63.8245 96.904 64.0165 97.192C64.2938 96.8507 64.6405 96.584 65.0565 96.392C65.4832 96.2 65.9205 96.104 66.3685 96.104C66.8912 96.104 67.3658 96.3227 67.7925 96.76C68.2298 97.1973 68.5232 97.6933 68.6725 98.248C68.7258 98.4827 68.7632 99.0373 68.7845 99.912L68.8485 100.84C68.9018 101.405 69.0832 101.741 69.3925 101.848C69.5418 101.891 69.6645 101.944 69.7605 102.008C69.8672 102.061 69.9205 102.12 69.9205 102.184C69.9418 102.44 69.8832 102.627 69.7445 102.744C69.6485 102.808 69.5152 102.877 69.3445 102.952C69.1738 103.027 69.0405 103.064 68.9445 103.064C68.3685 103.064 67.9578 102.856 67.7125 102.44C67.5525 102.163 67.4512 101.848 67.4085 101.496C67.3658 101.133 67.3445 100.643 67.3445 100.024C67.3445 99.3627 67.2645 98.7973 67.1045 98.328C66.9445 97.848 66.5818 97.608 66.0165 97.608C65.8138 97.608 65.6112 97.672 65.4085 97.8C65.2165 97.9173 65.0778 98.0667 64.9925 98.248C64.8432 98.536 64.7418 98.8507 64.6885 99.192C64.6352 99.5227 64.6085 99.9067 64.6085 100.344C64.6085 100.621 64.6245 100.904 64.6565 101.192C64.6565 101.277 64.6618 101.416 64.6725 101.608C64.6938 101.789 64.7045 101.955 64.7045 102.104C64.7045 102.371 64.6512 102.6 64.5445 102.792C64.4485 102.973 64.2778 103.064 64.0325 103.064C63.4458 103.064 63.1365 102.755 63.1045 102.136C63.1045 101.699 63.1098 101.464 63.1205 101.432V100.744C63.1205 100.36 63.1045 99.9867 63.0725 99.624C63.0405 99.2613 63.0032 98.9893 62.9605 98.808C62.8645 98.456 62.7365 98.184 62.5765 97.992C62.4165 97.8 62.1712 97.704 61.8405 97.704C61.6165 97.704 61.4085 97.7573 61.2165 97.864C61.0245 97.9707 60.8592 98.12 60.7205 98.312C60.5178 98.632 60.3845 99.0213 60.3205 99.48C60.2565 100.067 60.2085 100.531 60.1765 100.872C60.1552 101.203 60.1445 101.587 60.1445 102.024C60.1445 102.333 60.0912 102.584 59.9845 102.776C59.8885 102.968 59.7018 103.064 59.4245 103.064C59.2218 103.064 59.0085 103.011 58.7845 102.904C58.5712 102.787 58.4645 102.632 58.4645 102.44C58.4645 102.237 58.4858 102.035 58.5285 101.832C58.6245 101.224 58.6725 100.189 58.6725 98.728C58.6725 98.4933 58.6192 98.264 58.5125 98.04C58.4165 97.8053 58.2938 97.624 58.1445 97.496Z" fill="black"/>
<path d="M54.501 78.8928C39.3318 82.6556 21.1428 76.9172 11.4961 65.7268C11.0428 65.2008 10.7567 64.5683 10.6697 63.9003C10.5828 63.2323 10.6984 62.5551 11.0037 61.9444C11.309 61.3338 11.7919 60.8138 12.3983 60.4428C13.0048 60.0717 13.7108 59.8642 14.4375 59.8435C30.0415 59.4157 40.5303 54.4603 46.4366 44.9882C52.3508 35.5161 51.7398 24.6302 44.3412 11.9101C43.9961 11.3172 43.8363 10.6471 43.8797 9.9748C43.9231 9.30255 44.1679 8.65477 44.5868 8.1041C45.0057 7.55344 45.582 7.12165 46.2512 6.85717C46.9204 6.59269 47.6559 6.50596 48.3754 6.60672C63.666 8.74547 78.1303 20.4542 82.1958 34.4975C87.7966 53.8332 75.3925 73.7127 54.501 78.8928Z" fill="#191B1D"/>
</svg>
